<svg width="279" height="208" viewBox="0 0 279 208" fill="none" xmlns="http://www.w3.org/2000/svg">
<path opacity="0.3" fill-rule="evenodd" clip-rule="evenodd" d="M124.55 56.296V102.094H117.316C112.177 102.094 108.011 97.9521 108.011 92.8443V65.5478C108.011 60.4376 112.177 56.296 117.316 56.296H124.55ZM124.55 126.98H120.554C121.128 128.96 122.623 130.553 124.55 131.269V163.22H58.6923C54.3427 163.22 50.8137 159.714 50.8137 155.388V125.253C50.8137 120.927 54.3427 117.422 58.6923 117.422H120.295V125.168C120.295 125.477 120.317 125.78 120.361 126.076H124.55V126.98ZM229.171 92.8443V65.5478C229.171 60.4376 225.002 56.296 219.863 56.296H201.478V78.8028C201.478 80.2229 200.32 81.3736 198.892 81.3736V102.094H219.863C225.002 102.094 229.171 97.9521 229.171 92.8443Z" fill="#2129EE" fill-opacity="0.2"/>
<path fill-rule="evenodd" clip-rule="evenodd" d="M196.239 31.4345L195.36 31.8739L194.918 30.9975C193.724 28.6208 190.818 27.6595 188.429 28.8466C186.734 29.689 185.752 31.3859 185.752 33.1508C185.752 33.277 185.757 33.4033 185.769 33.5295C185.816 34.1267 185.98 34.7288 186.265 35.2968L186.705 36.1732L191.03 44.7744L198.892 40.8683L199.685 40.475L200.565 40.0381C202.956 38.8509 203.925 35.962 202.731 33.5878C201.537 31.2111 198.63 30.2473 196.239 31.4345ZM247.094 71.3208C243.401 71.3208 240.395 74.3092 240.395 77.9798C240.395 81.6504 243.401 84.6365 247.094 84.6365C250.787 84.6365 253.791 81.6504 253.791 77.9798C253.791 74.3092 250.787 71.3208 247.094 71.3208ZM247.094 83.5464C244.005 83.5464 241.492 81.0484 241.492 77.9798C241.492 74.9089 244.005 72.4108 247.094 72.4108C250.181 72.4108 252.694 74.9089 252.694 77.9798C252.694 81.0484 250.181 83.5464 247.094 83.5464ZM172.105 111.183H174.286C175.595 111.183 176.655 112.236 176.655 113.538V117.313L175.173 114.431C175.097 114.285 175.019 114.145 174.936 114.009L174.935 114.008C174.934 114.008 174.934 114.008 174.934 114.008L174.933 114.007L174.933 114.006C174.88 113.882 174.823 113.761 174.765 113.642C174.376 112.853 173.856 112.149 173.092 111.68C172.762 111.479 172.432 111.311 172.105 111.183ZM135.393 113.538V117.747C135.393 119.048 136.456 120.102 137.762 120.102H163.638C163.218 119.235 163.005 118.308 163.005 117.349C163.005 114.934 164.351 112.749 166.512 111.651C166.906 111.452 167.311 111.294 167.719 111.183H137.762C136.456 111.183 135.393 112.236 135.393 113.538ZM101.104 51.0159L98.772 40.4677L109.384 38.1493L111.718 48.6975L101.104 51.0159ZM100.079 41.298L101.942 49.7195L110.412 47.8672L108.548 39.4481L100.079 41.298ZM87.1811 83.1313L86.5534 83.442L86.2384 82.8206C85.3885 81.1285 83.3199 80.4415 81.6177 81.2887C80.4112 81.8883 79.7127 83.0973 79.7127 84.3524C79.7127 84.8671 79.8299 85.389 80.0766 85.8818L80.3892 86.5057L83.4713 92.6307L89.6331 89.5694L90.2608 89.2587C91.963 88.4114 92.6517 86.3552 91.8018 84.6631C90.9519 82.9711 88.8809 82.2865 87.1811 83.1313ZM71.3285 139.982C72.5765 140.339 73.761 140.186 74.6036 139.552C74.7843 139.416 75.0407 139.45 75.175 139.63C75.3118 139.807 75.2776 140.062 75.0969 140.198C73.9954 141.026 72.4617 141.208 70.884 140.696C70.8156 140.674 70.7473 140.65 70.6789 140.625C69.7411 141.356 68.4296 141.723 67.1132 141.723H67.0424C67.4722 142.99 67.6798 144.439 67.6798 146.08C67.6798 150.334 66.8959 154.128 64.3168 156.004V158.325C64.3168 159.758 63.147 160.92 61.7061 160.92C61.391 160.92 61.0882 160.865 60.8073 160.763C59.806 160.399 59.0929 159.444 59.0929 158.325V157.252H57.3003H50.9138H49.1212V158.325C49.1212 159.444 48.4081 160.399 47.4068 160.763C47.1259 160.865 46.8255 160.92 46.508 160.92C45.0671 160.92 43.8973 159.758 43.8973 158.325V156.978C40.781 156.255 38.8052 154.123 37.9284 151.098L35.2688 151.479C34.182 151.46 33.4616 144.412 35.1492 144.34C35.22 144.335 35.2908 144.335 35.3616 144.337L37.6744 144.378C37.9211 143.254 38.3314 142.215 38.8882 141.269C39.5525 140.14 40.4244 139.142 41.4819 138.297L39.9848 134.588L39.4524 133.267C42.769 131.942 47.4556 132.512 48.9356 135.219C49.4094 135.146 49.8979 135.085 50.3936 135.039C50.7502 135.008 51.1092 134.981 51.4707 134.962C50.9578 135.411 50.5914 136.023 50.4522 136.712C50.4107 136.916 50.3887 137.122 50.3887 137.338C50.3887 137.353 50.3887 137.365 50.3912 137.38C49.9516 137.479 49.6072 137.586 49.3679 137.671C49.1359 137.751 49.0015 137.809 48.9747 137.821C48.8526 137.875 48.7988 138.018 48.8526 138.142C48.9063 138.263 49.0528 138.319 49.1749 138.263C49.1774 138.261 49.2116 138.246 49.2726 138.224C49.9003 137.982 53.4904 136.753 58.2723 138.273C58.2967 138.28 58.3236 138.285 58.348 138.285C58.4506 138.285 58.5458 138.22 58.58 138.115C58.6215 137.989 58.5507 137.853 58.4213 137.812C57.8498 137.63 57.2954 137.486 56.7605 137.375C56.763 137.363 56.763 137.35 56.763 137.338C56.763 137.122 56.741 136.916 56.6995 136.712C56.5652 136.047 56.2184 135.454 55.7372 135.013C56.0792 135.042 56.4186 135.076 56.7557 135.115C62.0285 135.726 65.2498 137.61 66.7249 140.912C67.9362 141.006 69.0182 140.727 69.8143 140.232C68.6958 139.618 67.8532 138.693 67.5553 137.702C67.1865 136.479 67.482 135.382 68.349 134.772C69.1622 134.197 70.2979 134.202 71.1087 134.787C71.6143 135.151 72.7035 136.285 71.8756 138.938C71.7559 139.327 71.5679 139.674 71.3285 139.982ZM43.0132 143.616C43.0132 142.888 42.4173 142.296 41.6846 142.296C40.9495 142.296 40.3536 142.888 40.3536 143.616C40.3536 143.925 40.4586 144.209 40.6393 144.432C40.8787 144.738 41.2523 144.937 41.6748 144.939H41.6846C42.4173 144.939 43.0132 144.347 43.0132 143.616ZM39.0274 151.768C39.0274 151.768 40.1826 153.589 40.82 153.256C41.2767 153.016 41.4526 152.285 41.2767 150.87L39.0274 151.768ZM68.3368 137.469C68.5956 138.331 69.4333 139.166 70.5055 139.674C70.7863 139.38 70.9866 139.047 71.0965 138.698C71.5679 137.183 71.3993 135.996 70.63 135.442C70.3614 135.251 70.039 135.153 69.7166 135.153C69.4016 135.153 69.0865 135.246 68.8203 135.433C68.2464 135.84 68.0681 136.581 68.3368 137.469Z" fill="#2129EE"/>
<path fill-rule="evenodd" clip-rule="evenodd" d="M198.892 81.3736V46.7189C199.607 46.7189 200.252 47.0054 200.721 47.4715C201.19 47.9376 201.478 48.5785 201.478 49.2898V78.8027C201.478 79.6646 201.053 80.4268 200.398 80.8929C199.974 81.194 199.456 81.3736 198.892 81.3736ZM238.893 174.248L242.083 179.74C242.908 181.16 242.42 182.978 240.989 183.799L212.536 200.13C211.105 200.95 209.276 200.462 208.451 199.039L205.261 193.548C204.435 192.128 204.926 190.31 206.355 189.489L207.283 188.955L207.679 188.729L208.079 188.499L233.166 174.103L233.562 173.874L233.957 173.646L234.81 173.158C236.238 172.338 238.068 172.826 238.893 174.248ZM120.295 65.6594V102.094V125.168C120.295 125.477 120.317 125.78 120.361 126.076H166.708L163.716 120.26L163.696 120.22L163.696 120.22C163.676 120.18 163.656 120.142 163.638 120.102H137.762C136.456 120.102 135.393 119.048 135.393 117.747V113.538C135.393 112.236 136.456 111.183 137.762 111.183H167.719C168.317 111.018 168.925 110.942 169.526 110.952C170.366 110.758 171.228 110.838 172.105 111.183H174.286C175.595 111.183 176.655 112.236 176.655 113.538V117.313L181.166 126.076H181.713C184.534 126.076 186.829 123.797 186.829 120.99V59.532C186.829 59.4034 186.825 59.2771 186.812 59.1509C186.781 59.1485 186.746 59.1485 186.715 59.1485H126.848C126.04 59.1485 125.265 59.2941 124.55 59.5612V59.5611C122.064 60.4861 120.295 62.8676 120.295 65.6594ZM143.592 105.478H153.695V93.3177H141.428V103.329C141.428 104.516 142.398 105.478 143.592 105.478ZM152.399 72.3962C153.014 73.3454 153.566 74.2897 154.02 75.1054H155.867C154.218 71.998 150.64 66.0211 147.243 65.3778C146.205 65.1812 145.228 65.4725 144.422 66.2251C143.409 67.1694 143.343 68.1793 143.465 68.8615C143.8 70.7187 145.934 72.7579 149.996 75.0933C150.88 75.6031 151.751 76.0643 152.538 76.46H143.592C142.398 76.46 141.428 77.4238 141.428 78.6109V88.6202H153.695V75.2535C149.832 73.3429 145.414 70.573 145.055 68.5799C145.001 68.2837 145.008 67.8807 145.526 67.3976C145.868 67.0772 146.222 66.9218 146.62 66.9218C146.723 66.9218 146.83 66.9339 146.94 66.9534C148.359 67.2228 150.298 69.1552 152.399 72.3962ZM168.459 105.478C169.653 105.478 170.62 104.516 170.62 103.329V93.3177H158.353V105.478H168.459ZM158.353 88.6202H170.62V78.6109C170.62 77.4238 169.653 76.46 168.459 76.46H160.834C164.204 75.1588 168.312 73.1172 169.255 70.6361C169.629 69.6529 169.507 68.6479 168.898 67.7278C168.141 66.5819 167.16 66.3392 166.461 66.3392H166.449C164.551 66.3465 162.165 68.0871 159.151 71.663C158.096 72.9181 157.168 74.1586 156.492 75.1054H158.353V75.2656C160.91 71.8111 164.417 67.9511 166.456 67.9438H166.464C166.766 67.9438 167.162 68.0215 167.548 68.609C167.873 69.1018 167.936 69.5655 167.746 70.068C167.233 71.413 164.986 72.9788 161.413 74.4791C160.329 74.9355 159.261 75.3239 158.353 75.6346V88.6202ZM167.174 126.979L169.592 131.682H126.848C126.04 131.682 125.265 131.536 124.55 131.269C122.623 130.553 121.128 128.96 120.554 126.979H167.174ZM187.738 59.532C187.738 59.4301 187.735 59.3281 187.731 59.2262C190.864 59.7117 193.265 62.4064 193.265 65.6594V125.168C193.265 127.853 191.633 130.157 189.301 131.153C188.507 131.495 187.633 131.682 186.715 131.682H184.05L181.63 126.979H181.713C185.034 126.979 187.738 124.292 187.738 120.99V59.532Z" fill="#2129EE"/>
<path fill-rule="evenodd" clip-rule="evenodd" d="M55.6542 26.72C56.5456 26.72 57.2685 26.0014 57.2685 25.1153V20.2236C57.2685 19.3375 56.5456 18.6189 55.6542 18.6189C54.7628 18.6189 54.0399 19.3375 54.0399 20.2236V25.1153C54.0399 26.0014 54.7628 26.72 55.6542 26.72ZM61.7598 28.3465C62.0138 28.4922 62.2922 28.5626 62.5657 28.5626C63.1226 28.5626 63.6672 28.2737 63.9651 27.759L66.4245 23.5228C66.8714 22.7556 66.6077 21.7749 65.8335 21.3306C65.0617 20.8863 64.0751 21.1509 63.6281 21.9181L61.1688 26.1543C60.7219 26.9215 60.9881 27.9047 61.7598 28.3465ZM66.2291 32.7891C66.5271 33.3038 67.0717 33.5927 67.6285 33.5927C67.902 33.5927 68.1805 33.5223 68.4344 33.3766L72.6962 30.932C73.4679 30.4877 73.7341 29.5069 73.2872 28.7398C72.8403 27.9702 71.8536 27.7081 71.0818 28.1523L66.8201 30.597C66.0484 31.0412 65.7822 32.022 66.2291 32.7891ZM186.705 36.1732L191.03 44.7744L198.892 40.8683V46.7189V81.3737V131.425C198.506 132.167 198.266 132.99 198.198 133.85C196.686 131.179 193.526 129.949 190.581 130.92C190.258 131.024 189.948 131.153 189.662 131.301C189.582 131.342 189.504 131.383 189.423 131.427C188.251 132.087 187.333 133.073 186.761 134.296C186.514 134.828 186.343 135.386 186.248 135.955L184.05 131.682H186.715C187.633 131.682 188.507 131.495 189.301 131.153C191.633 130.157 193.265 127.853 193.265 125.169V65.6595C193.265 62.4064 190.864 59.7117 187.731 59.2262C187.569 56.0654 184.932 53.5455 181.713 53.5455H124.55V40.81C124.55 36.7899 127.827 33.5295 131.874 33.5295H147.856C148.03 33.5562 148.208 33.5708 148.389 33.5708H175.053C175.234 33.5708 175.412 33.5562 175.585 33.5295H185.769C185.816 34.1267 185.98 34.7288 186.265 35.2968L186.705 36.1732ZM180.944 173.785L178.602 171.711H177.6C176.328 171.711 175.3 170.689 175.3 169.425V168.789L171.866 165.747V169.425C171.866 170.689 170.838 171.711 169.568 171.711H163.193C161.923 171.711 160.895 170.689 160.895 169.425V163.091C160.895 161.828 161.923 160.804 163.193 160.804H166.283L164.835 159.522C163.56 158.359 162.854 156.738 162.849 154.956C162.842 153.184 163.526 151.462 164.774 150.11L164.915 149.962C166.139 148.7 167.738 147.928 169.441 147.782C170.276 147.707 171.096 147.787 171.876 148.022C172.755 148.287 173.541 148.729 174.21 149.341L174.249 149.377L182.419 156.609L169.592 131.682H126.848C126.04 131.682 125.265 131.536 124.55 131.269V158.677H131.684C131.964 158.677 132.192 158.903 132.192 159.18C132.192 159.459 131.964 159.685 131.684 159.685H124.55V180.854C124.55 184.874 127.827 188.135 131.874 188.135H191.57C194.503 188.135 197.033 186.421 198.2 183.944C194.437 183.745 187.264 182.434 180.944 173.785ZM143.057 169.425C143.057 170.689 142.026 171.711 140.757 171.711H134.385C133.115 171.711 132.084 170.689 132.084 169.425V163.091C132.084 161.828 133.115 160.804 134.385 160.804H140.757C142.026 160.804 143.057 161.828 143.057 163.091V169.425ZM146.488 163.091C146.488 161.828 147.519 160.804 148.789 160.804H155.161C156.431 160.804 157.461 161.828 157.461 163.091V169.425C157.461 170.689 156.431 171.711 155.161 171.711H148.789C147.519 171.711 146.488 170.689 146.488 169.425V163.091ZM175.913 182.723H147.529C147.28 182.723 147.077 182.522 147.077 182.272C147.077 182.022 147.28 181.82 147.529 181.82H175.913C176.162 181.82 176.367 182.022 176.367 182.272C176.367 182.522 176.162 182.723 175.913 182.723ZM38.8882 141.269L36.3947 135.088C37.5914 134.612 38.8272 134.457 39.9848 134.588L41.4819 138.297C40.4244 139.142 39.5525 140.14 38.8882 141.269ZM49.1212 158.325C49.1212 159.445 48.4081 160.399 47.4068 160.763C47.6852 160.865 47.988 160.921 48.3031 160.921C49.7464 160.921 50.9138 159.758 50.9138 158.325V157.252H49.1212V158.325ZM59.0929 158.325V157.252H57.3003V158.325C57.3003 159.758 58.4677 160.921 59.911 160.921C60.2261 160.921 60.5289 160.865 60.8073 160.763C59.806 160.399 59.0929 159.445 59.0929 158.325ZM186.715 59.1486C186.746 59.1486 186.781 59.1486 186.812 59.151C186.619 56.5243 184.404 54.4462 181.713 54.4462H124.55V59.5613C125.265 59.2942 126.04 59.1486 126.848 59.1486H186.715ZM25.8296 184.025C26.1129 183.743 26.5061 183.568 26.9383 183.568H84.3701C85.2371 183.568 85.938 184.267 85.938 185.129C85.938 185.561 85.7621 185.95 85.4788 186.231C85.1955 186.513 84.8023 186.688 84.3701 186.688H26.9383C26.0713 186.688 25.3704 185.991 25.3704 185.129C25.3704 184.697 25.5463 184.309 25.8296 184.025ZM83.254 175.21H58.3382C57.5958 175.21 56.9266 175.508 56.4406 175.991C55.9546 176.475 55.6542 177.142 55.6542 177.878C55.6542 179.351 56.8558 180.546 58.3382 180.546H83.254C83.9964 180.546 84.6656 180.247 85.1516 179.764C85.6376 179.281 85.938 178.613 85.938 177.878C85.938 176.404 84.7364 175.21 83.254 175.21ZM69.4797 40.4629C68.5883 40.4629 67.8654 39.7443 67.8654 38.8582C67.8654 37.9721 68.5883 37.2536 69.4797 37.2536H74.4008C75.2923 37.2536 76.0152 37.9721 76.0152 38.8582C76.0152 39.7443 75.2923 40.4629 74.4008 40.4629H69.4797ZM66.2291 44.9274C66.6736 44.1602 67.6627 43.8956 68.4344 44.3399L72.6962 46.7845C73.4679 47.2288 73.7341 48.2096 73.2872 48.9767C72.9892 49.4938 72.4446 49.7803 71.8878 49.7803C71.6142 49.7803 71.3358 49.7123 71.0818 49.5642L66.8201 47.1195C66.0484 46.6753 65.7822 45.6945 66.2291 44.9274ZM65.03 56.6019C64.4707 56.6019 63.9285 56.3131 63.6281 55.7984L61.1688 51.5621C60.7219 50.795 60.9881 49.8118 61.7598 49.37C62.5316 48.9257 63.5182 49.1903 63.9651 49.9575L66.4245 54.1937C66.8714 54.9608 66.6077 55.9416 65.8335 56.3859C65.5795 56.5315 65.3035 56.6019 65.03 56.6019ZM48.7695 104.669C50.0248 106.667 53.4391 108.284 56.3942 108.284C59.3469 108.284 60.7219 106.667 59.4665 104.669C58.2088 102.674 54.797 101.055 51.8419 101.055C48.8892 101.055 47.5118 102.674 48.7695 104.669ZM57.2685 57.4929C57.2685 58.379 56.5456 59.0976 55.6542 59.0976C54.7628 59.0976 54.0399 58.379 54.0399 57.4929V52.6012C54.0399 51.7151 54.7628 50.9965 55.6542 50.9965C56.5456 50.9965 57.2685 51.7151 57.2685 52.6012V57.4929ZM53.5759 134.17C54.4087 134.17 55.1682 134.488 55.7372 135.013C56.2184 135.454 56.5652 136.047 56.6995 136.712C56.741 136.916 56.763 137.122 56.763 137.338C56.763 137.35 56.763 137.363 56.7605 137.375C56.763 137.431 56.7605 137.486 56.7557 137.542C54.6651 137.297 52.5037 137.273 50.3936 137.467C50.3912 137.438 50.3887 137.409 50.3912 137.38C50.3887 137.365 50.3887 137.353 50.3887 137.338C50.3887 137.122 50.4107 136.916 50.4522 136.712C50.5914 136.023 50.9578 135.411 51.4706 134.962C52.0324 134.469 52.7699 134.17 53.5759 134.17ZM54.819 86.6198C55.7299 87.0325 56.1524 85.6075 55.7665 83.4347C55.3782 81.262 54.3256 79.1645 53.4171 78.7518C52.5062 78.3367 52.0812 79.7617 52.4695 81.9345C52.8554 84.1072 53.908 86.2047 54.819 86.6198ZM48.7427 28.5626C48.1858 28.5626 47.6437 28.2737 47.3433 27.759L44.8839 23.5228C44.437 22.7556 44.7008 21.7749 45.475 21.3306C46.2467 20.8863 47.2334 21.1509 47.6803 21.9181L50.1396 26.1543C50.5866 26.9215 50.3204 27.9047 49.5486 28.3465C49.2946 28.4922 49.0162 28.5626 48.7427 28.5626ZM45.475 56.3859C45.7289 56.5315 46.0049 56.6019 46.2809 56.6019C46.8377 56.6019 47.3799 56.3131 47.6803 55.7984L50.1396 51.5621C50.5866 50.795 50.3204 49.8118 49.5486 49.37C48.7769 48.9257 47.7902 49.1903 47.3433 49.9575L44.8839 54.1937C44.437 54.9608 44.7008 55.9416 45.475 56.3859ZM42.874 33.3766L38.6122 30.932C37.8405 30.4877 37.5743 29.5069 38.0212 28.7398C38.4682 27.9702 39.4548 27.7081 40.2266 28.1523L44.4883 30.597C45.26 31.0412 45.5262 32.022 45.0793 32.7891C44.7813 33.3038 44.2367 33.5927 43.6799 33.5927C43.4064 33.5927 43.128 33.5223 42.874 33.3766ZM45.0793 44.9274C44.6348 44.1602 43.6457 43.8956 42.874 44.3399L38.6122 46.7845C37.8405 47.2288 37.5743 48.2096 38.0212 48.9767C38.3216 49.4938 38.8638 49.7803 39.4206 49.7803C39.6942 49.7803 39.9726 49.7123 40.2266 49.5642L44.4883 47.1195C45.26 46.6753 45.5262 45.6945 45.0793 44.9274ZM41.8287 40.4629H36.9076C36.0161 40.4629 35.2932 39.7443 35.2932 38.8582C35.2932 37.9721 36.0161 37.2536 36.9076 37.2536H41.8287C42.7201 37.2536 43.443 37.9721 43.443 38.8582C43.443 39.7443 42.7201 40.4629 41.8287 40.4629ZM28.0544 180.546H35.2297C35.9722 180.546 36.6414 180.247 37.1274 179.764C37.6134 179.281 37.9138 178.613 37.9138 177.878C37.9138 176.404 36.7122 175.21 35.2297 175.21H28.0544C27.312 175.21 26.6428 175.508 26.1568 175.991C25.6708 176.475 25.3704 177.142 25.3704 177.878C25.3704 179.351 26.572 180.546 28.0544 180.546ZM56.6848 122.488H80.9387C83.7864 122.488 86.0992 124.79 86.0992 127.618V165.951C86.0992 168.779 83.7864 171.08 80.9387 171.08H30.3697C27.522 171.08 25.2092 168.779 25.2092 165.951V127.618C25.2092 124.79 27.522 122.488 30.3697 122.488H50.4669C50.7795 121.071 52.0543 120.01 53.5759 120.01C55.0974 120.01 56.3722 121.071 56.6848 122.488ZM80.9387 170.76C83.6081 170.76 85.7768 168.602 85.7768 165.951V127.618C85.7768 124.967 83.6081 122.809 80.9387 122.809H56.741C56.7557 122.93 56.763 123.054 56.763 123.178C56.763 124.926 55.3367 126.346 53.5759 126.346C51.815 126.346 50.3887 124.926 50.3887 123.178C50.3887 123.054 50.3961 122.93 50.4107 122.809H30.3697C27.7003 122.809 25.5316 124.967 25.5316 127.618V165.951C25.5316 168.602 27.7003 170.76 30.3697 170.76H80.9387Z" fill="#2129EE" fill-opacity="0.2"/>
<path opacity="0.3" d="M253.168 88.7246V118.859C253.168 123.185 249.639 126.691 245.289 126.691H198.892V81.3737C199.456 81.3737 199.974 81.194 200.398 80.893H245.289C249.639 80.893 253.168 84.3985 253.168 88.7246Z" fill="#2129EE" fill-opacity="0.2"/>
<path opacity="0.6" fill-rule="evenodd" clip-rule="evenodd" d="M169.48 103.791C169.48 105.034 170.493 106.041 171.744 106.041C172.994 106.041 174.005 105.034 174.008 103.791V96.9349C174.008 95.692 172.994 94.6845 171.744 94.6845C170.493 94.6845 169.48 95.692 169.48 96.9349V103.791ZM174.005 149.171V142.315C174.005 141.072 172.994 140.065 171.744 140.065C170.493 140.065 169.48 141.072 169.48 142.315V148.231C170.249 148.161 171.016 148.234 171.744 148.455C172.53 148.69 173.268 149.093 173.903 149.673L173.939 149.707C173.983 149.535 174.005 149.355 174.005 149.171ZM154.961 115.672C154.577 115.672 154.186 115.574 153.832 115.371L147.859 111.943C146.777 111.321 146.405 109.945 147.031 108.869C147.656 107.794 149.041 107.425 150.123 108.046L156.096 111.474C157.178 112.096 157.549 113.472 156.924 114.548C156.504 115.269 155.742 115.672 154.961 115.672ZM189.87 131.701C190.148 131.558 190.434 131.442 190.722 131.347L189.655 130.735C188.573 130.114 187.188 130.483 186.563 131.558C185.984 132.561 186.263 133.816 187.174 134.486C187.716 133.325 188.634 132.33 189.87 131.701ZM148.992 138.363C148.21 138.363 147.448 137.96 147.031 137.236C146.405 136.161 146.777 134.784 147.859 134.163L153.832 130.735C154.914 130.114 156.299 130.483 156.924 131.558C157.549 132.634 157.178 134.01 156.096 134.632L150.12 138.059C149.763 138.266 149.375 138.363 148.992 138.363ZM186.566 114.545C186.983 115.269 187.745 115.672 188.527 115.672C188.91 115.672 189.298 115.574 189.657 115.368L195.631 111.94C196.713 111.319 197.084 109.942 196.459 108.867C195.834 107.791 194.449 107.422 193.367 108.044L187.394 111.472C186.312 112.093 185.94 113.47 186.566 114.545Z" fill="white"/>
<path opacity="0.1" fill-rule="evenodd" clip-rule="evenodd" d="M174.21 149.341C173.461 148.656 172.564 148.183 171.59 147.942L160.348 126.093C158.287 122.088 159.711 117.203 163.504 114.885C163.435 115.045 163.374 115.21 163.32 115.378C162.79 117.004 162.932 118.738 163.714 120.26L182.419 156.609L174.21 149.341ZM242.324 182.175L242.959 183.267C243.712 184.563 243.912 186.071 243.524 187.518C243.133 188.962 242.2 190.171 240.896 190.919L212.444 207.247C211.586 207.74 210.614 208 209.628 208C207.62 208 205.749 206.925 204.746 205.198L201.556 199.707C200.804 198.411 200.604 196.901 200.992 195.456C201.256 194.48 201.766 193.611 202.472 192.922C201.361 191.693 200.276 191.014 199.361 191.002C199.323 191.002 199.284 191.001 199.244 191C199.201 191 199.156 190.999 199.109 190.999L198.476 191.002C195.372 191.002 185.972 191.002 177.898 180.099L161.938 165.968C160.209 164.392 159.252 162.205 159.244 159.804C159.235 157.485 160.124 155.237 161.745 153.48C162.28 152.9 162.878 152.392 163.523 151.967C162.307 154.553 162.747 157.621 164.837 159.522L180.946 173.785C188.422 184.02 197.006 183.998 200.24 183.981C200.452 183.978 200.64 183.978 200.806 183.981C203.415 184.017 205.654 186.433 207.283 188.955L206.355 189.489C204.926 190.31 204.436 192.128 205.261 193.548L208.451 199.04C209.276 200.462 211.105 200.95 212.536 200.13L240.989 183.799C241.646 183.422 242.102 182.835 242.324 182.175Z" fill="#444040"/>
<path opacity="0.3" fill-rule="evenodd" clip-rule="evenodd" d="M204.753 133.253C204.753 132.706 205.197 132.262 205.747 132.262C206.299 132.262 206.743 132.706 206.743 133.253C206.743 133.799 206.299 134.243 205.747 134.243C205.197 134.243 204.753 133.799 204.753 133.253ZM215.706 132.262C215.154 132.262 214.71 132.706 214.71 133.253C214.71 133.799 215.154 134.243 215.706 134.243C216.256 134.243 216.7 133.799 216.7 133.253C216.7 132.706 216.256 132.262 215.706 132.262ZM218.195 134.736C217.987 134.736 217.797 134.799 217.638 134.906C217.594 134.935 217.553 134.971 217.516 135.005C217.511 135.009 217.507 135.013 217.503 135.016C217.498 135.02 217.494 135.024 217.489 135.027C217.401 135.115 217.328 135.221 217.279 135.34H217.277C217.226 135.459 217.199 135.59 217.199 135.726C217.199 136.273 217.643 136.717 218.195 136.717C218.471 136.717 218.718 136.605 218.898 136.426C219.077 136.246 219.189 135.998 219.189 135.726C219.189 135.18 218.745 134.736 218.195 134.736ZM219.687 138.2C219.687 137.654 220.134 137.212 220.684 137.212C221.233 137.212 221.68 137.654 221.68 138.2C221.68 138.749 221.233 139.191 220.684 139.191C220.134 139.191 219.687 138.749 219.687 138.2ZM223.172 144.633C223.517 144.633 223.82 144.808 223.998 145.07C224.071 145.177 224.122 145.296 224.149 145.425C224.161 145.49 224.169 145.556 224.169 145.624C224.169 146.17 223.722 146.614 223.172 146.614C222.623 146.614 222.178 146.17 222.178 145.624C222.178 145.556 222.183 145.49 222.198 145.425C222.225 145.296 222.276 145.177 222.347 145.07C222.525 144.808 222.828 144.633 223.172 144.633ZM224.667 157.995C224.667 157.449 225.112 157.007 225.661 157.007C226.213 157.007 226.657 157.449 226.657 157.995C226.657 158.544 226.213 158.986 225.661 158.986C225.112 158.986 224.667 158.544 224.667 157.995ZM224.667 162.945C224.667 162.399 225.112 161.955 225.661 161.955C226.213 161.955 226.657 162.399 226.657 162.945C226.657 163.491 226.213 163.936 225.661 163.936C225.112 163.936 224.667 163.491 224.667 162.945ZM225.661 166.905C225.112 166.905 224.667 167.347 224.667 167.893C224.667 168.441 225.112 168.883 225.661 168.883C226.213 168.883 226.657 168.441 226.657 167.893C226.657 167.347 226.213 166.905 225.661 166.905ZM223.998 154.968C223.82 154.706 223.517 154.533 223.172 154.533C222.828 154.533 222.525 154.706 222.347 154.968C222.276 155.075 222.225 155.194 222.198 155.322C222.183 155.388 222.178 155.453 222.178 155.521C222.178 156.068 222.623 156.512 223.172 156.512C223.722 156.512 224.169 156.068 224.169 155.521C224.169 155.453 224.161 155.388 224.149 155.322C224.122 155.194 224.071 155.075 223.998 154.968ZM223.172 164.431C223.517 164.431 223.82 164.603 223.998 164.865C224.071 164.972 224.122 165.091 224.149 165.22C224.161 165.285 224.169 165.351 224.169 165.419C224.169 165.965 223.722 166.409 223.172 166.409C222.623 166.409 222.178 165.965 222.178 165.419C222.178 165.351 222.183 165.285 222.198 165.22C222.225 165.091 222.276 164.972 222.347 164.865C222.525 164.603 222.828 164.431 223.172 164.431ZM223.172 149.583C222.623 149.583 222.178 150.028 222.178 150.574C222.178 151.12 222.623 151.562 223.172 151.562C223.722 151.562 224.169 151.12 224.169 150.574C224.169 150.028 223.722 149.583 223.172 149.583ZM222.178 160.471C222.178 159.925 222.623 159.481 223.172 159.481C223.722 159.481 224.169 159.925 224.169 160.471C224.169 161.018 223.722 161.459 223.172 161.459C222.623 161.459 222.178 161.018 222.178 160.471ZM223.172 169.378C222.623 169.378 222.178 169.823 222.178 170.369C222.178 170.915 222.623 171.357 223.172 171.357C223.722 171.357 224.169 170.915 224.169 170.369C224.169 169.823 223.722 169.378 223.172 169.378ZM220.684 142.16C220.134 142.16 219.687 142.604 219.687 143.15C219.687 143.696 220.134 144.141 220.684 144.141C221.233 144.141 221.68 143.696 221.68 143.15C221.68 142.604 221.233 142.16 220.684 142.16ZM219.687 148.098C219.687 147.551 220.134 147.11 220.684 147.11C221.233 147.11 221.68 147.551 221.68 148.098C221.68 148.646 221.233 149.088 220.684 149.088C220.134 149.088 219.687 148.646 219.687 148.098ZM220.684 152.057C220.134 152.057 219.687 152.501 219.687 153.048C219.687 153.594 220.134 154.038 220.684 154.038C221.233 154.038 221.68 153.594 221.68 153.048C221.68 152.501 221.233 152.057 220.684 152.057ZM219.687 157.995C219.687 157.449 220.134 157.007 220.684 157.007C221.233 157.007 221.68 157.449 221.68 157.995C221.68 158.544 221.233 158.986 220.684 158.986C220.134 158.986 219.687 158.544 219.687 157.995ZM220.684 161.955C220.134 161.955 219.687 162.399 219.687 162.945C219.687 163.491 220.134 163.936 220.684 163.936C221.233 163.936 221.68 163.491 221.68 162.945C221.68 162.399 221.233 161.955 220.684 161.955ZM219.687 167.893C219.687 167.347 220.134 166.905 220.684 166.905C221.233 166.905 221.68 167.347 221.68 167.893C221.68 168.441 221.233 168.883 220.684 168.883C220.134 168.883 219.687 168.441 219.687 167.893ZM220.684 171.852C220.134 171.852 219.687 172.297 219.687 172.843C219.687 173.389 220.134 173.833 220.684 173.833C221.233 173.833 221.68 173.389 221.68 172.843C221.68 172.297 221.233 171.852 220.684 171.852ZM218.195 144.633C218.537 144.633 218.84 144.808 219.021 145.07C219.091 145.177 219.143 145.296 219.17 145.425C219.184 145.49 219.189 145.556 219.189 145.624C219.189 146.17 218.745 146.614 218.195 146.614C217.643 146.614 217.199 146.17 217.199 145.624C217.199 145.556 217.206 145.49 217.218 145.425C217.245 145.296 217.296 145.177 217.37 145.07C217.548 144.808 217.851 144.633 218.195 144.633ZM219.021 154.968C218.84 154.706 218.537 154.533 218.195 154.533C217.851 154.533 217.548 154.706 217.37 154.968C217.296 155.075 217.245 155.194 217.218 155.322C217.206 155.388 217.199 155.453 217.199 155.521C217.199 156.068 217.643 156.512 218.195 156.512C218.745 156.512 219.189 156.068 219.189 155.521C219.189 155.453 219.184 155.388 219.17 155.322C219.143 155.194 219.091 155.075 219.021 154.968ZM218.195 174.328C218.537 174.328 218.84 174.501 219.021 174.763C219.091 174.87 219.143 174.989 219.17 175.117C219.184 175.183 219.189 175.248 219.189 175.316C219.189 175.863 218.745 176.307 218.195 176.307C217.643 176.307 217.199 175.863 217.199 175.316C217.199 175.248 217.206 175.183 217.218 175.117C217.245 174.989 217.296 174.87 217.37 174.763C217.548 174.501 217.851 174.328 218.195 174.328ZM217.199 140.676C217.199 140.128 217.643 139.686 218.195 139.686C218.745 139.686 219.189 140.128 219.189 140.676C219.189 141.223 218.745 141.664 218.195 141.664C217.643 141.664 217.199 141.223 217.199 140.676ZM218.195 149.583C217.643 149.583 217.199 150.028 217.199 150.574C217.199 151.12 217.643 151.562 218.195 151.562C218.745 151.562 219.189 151.12 219.189 150.574C219.189 150.028 218.745 149.583 218.195 149.583ZM217.199 170.369C217.199 169.823 217.643 169.378 218.195 169.378C218.745 169.378 219.189 169.823 219.189 170.369C219.189 170.915 218.745 171.357 218.195 171.357C217.643 171.357 217.199 170.915 217.199 170.369ZM214.71 138.2C214.71 137.654 215.154 137.212 215.704 137.212C216.256 137.212 216.7 137.654 216.7 138.2C216.7 138.749 216.256 139.191 215.704 139.191C215.154 139.191 214.71 138.749 214.71 138.2ZM215.704 142.16C215.154 142.16 214.71 142.604 214.71 143.15C214.71 143.696 215.154 144.141 215.704 144.141C216.256 144.141 216.7 143.696 216.7 143.15C216.7 142.604 216.256 142.16 215.704 142.16ZM214.71 148.098C214.71 147.551 215.154 147.11 215.704 147.11C216.256 147.11 216.7 147.551 216.7 148.098C216.7 148.646 216.256 149.088 215.704 149.088C215.154 149.088 214.71 148.646 214.71 148.098ZM215.704 171.852C215.154 171.852 214.71 172.297 214.71 172.843C214.71 173.389 215.154 173.833 215.704 173.833C216.256 173.833 216.7 173.389 216.7 172.843C216.7 172.297 216.256 171.852 215.704 171.852ZM214.71 177.793C214.71 177.244 215.154 176.802 215.704 176.802C216.256 176.802 216.7 177.244 216.7 177.793C216.7 178.339 216.256 178.781 215.704 178.781C215.154 178.781 214.71 178.339 214.71 177.793ZM213.215 134.736C213.01 134.736 212.817 134.799 212.659 134.906C212.622 134.93 212.589 134.959 212.557 134.988L212.536 135.005C212.534 135.008 212.531 135.01 212.529 135.013L212.524 135.016C212.52 135.02 212.516 135.024 212.512 135.027C212.422 135.115 212.351 135.221 212.3 135.34C212.248 135.459 212.219 135.59 212.219 135.726C212.219 136.273 212.666 136.717 213.215 136.717C213.545 136.717 213.836 136.554 214.016 136.309C214.019 136.305 214.023 136.302 214.026 136.298L214.026 136.298C214.031 136.293 214.036 136.287 214.041 136.28C214.043 136.276 214.045 136.273 214.047 136.269C214.049 136.265 214.051 136.262 214.053 136.258C214.153 136.103 214.212 135.923 214.212 135.726C214.212 135.658 214.204 135.59 214.192 135.527C214.099 135.076 213.696 134.736 213.215 134.736ZM213.215 144.633C213.56 144.633 213.863 144.808 214.041 145.07C214.114 145.177 214.165 145.296 214.192 145.425C214.204 145.49 214.212 145.556 214.212 145.624C214.212 146.17 213.765 146.614 213.215 146.614C212.666 146.614 212.219 146.17 212.219 145.624C212.219 145.556 212.226 145.49 212.241 145.425C212.268 145.296 212.319 145.177 212.39 145.07C212.568 144.808 212.871 144.633 213.215 144.633ZM214.041 174.763C213.863 174.501 213.56 174.328 213.215 174.328C212.871 174.328 212.568 174.501 212.39 174.763C212.319 174.87 212.268 174.989 212.241 175.117C212.226 175.183 212.219 175.248 212.219 175.316C212.219 175.863 212.666 176.307 213.215 176.307C213.765 176.307 214.212 175.863 214.212 175.316C214.212 175.248 214.204 175.183 214.192 175.117C214.165 174.989 214.114 174.87 214.041 174.763ZM212.219 140.676C212.219 140.128 212.666 139.686 213.215 139.686C213.765 139.686 214.212 140.128 214.212 140.676C214.212 141.223 213.765 141.664 213.215 141.664C212.666 141.664 212.219 141.223 212.219 140.676ZM210.727 137.212C210.177 137.212 209.73 137.654 209.73 138.2C209.73 138.749 210.177 139.191 210.727 139.191C211.276 139.191 211.723 138.749 211.723 138.2C211.723 137.654 211.276 137.212 210.727 137.212ZM207.681 134.906C207.84 134.799 208.03 134.736 208.238 134.736C208.788 134.736 209.232 135.18 209.232 135.726C209.232 135.998 209.122 136.246 208.941 136.426C208.761 136.605 208.512 136.717 208.238 136.717C207.686 136.717 207.242 136.273 207.242 135.726C207.242 135.59 207.269 135.459 207.32 135.34H207.322C207.371 135.221 207.444 135.115 207.532 135.027C207.537 135.024 207.541 135.02 207.546 135.016C207.55 135.013 207.554 135.009 207.559 135.005C207.596 134.971 207.637 134.935 207.681 134.906ZM225.661 154.038C226.213 154.038 226.657 153.594 226.657 153.048C226.657 152.501 226.213 152.057 225.661 152.057C225.112 152.057 224.667 152.501 224.667 153.048C224.667 153.594 225.112 154.038 225.661 154.038Z" fill="#444040"/>
<path fill-rule="evenodd" clip-rule="evenodd" d="M147.856 33.5295C148.03 33.5562 148.208 33.5708 148.389 33.5708H175.053C175.234 33.5708 175.412 33.5562 175.585 33.5295C177.212 33.2746 178.46 31.8714 178.46 30.1842V26.3267H172.442C172.191 26.3267 171.988 26.5306 171.988 26.7782C171.988 27.0283 172.191 27.2297 172.442 27.2297H177.554V30.1842C177.554 31.5558 176.43 32.6701 175.053 32.6701H148.389C147.011 32.6701 145.888 31.5558 145.888 30.1842V27.2297H165.797C166.046 27.2297 166.251 27.0283 166.251 26.7782C166.251 26.5306 166.046 26.3267 165.797 26.3267H144.982V30.1842C144.982 31.8714 146.23 33.2746 147.856 33.5295ZM229.688 150.877C229.996 151.601 230.145 152.361 230.133 153.133C230.086 156.264 230.292 164.339 233.156 171.68C233.42 172.355 233.691 173.018 233.957 173.646L233.562 173.874L233.166 174.103C232.883 173.435 232.592 172.726 232.311 172.005C229.388 164.518 229.178 156.303 229.224 153.118C229.236 152.47 229.112 151.836 228.853 151.227L219.785 129.898C219.223 128.817 218.276 128.019 217.113 127.645C215.946 127.271 214.703 127.368 213.611 127.924C211.579 128.958 210.627 131.269 211.345 133.423L210.929 133.595L210.512 133.77L209.53 131.864C208.856 130.555 207.713 129.589 206.306 129.138C204.902 128.686 203.405 128.805 202.091 129.473C200.235 130.417 199.085 132.291 199.085 134.367C199.085 134.981 199.185 135.586 199.385 136.159L198.892 136.37L198.555 136.513L197.517 134.496C196.286 132.102 193.426 130.932 190.864 131.774C190.588 131.866 190.324 131.976 190.078 132.102C188.971 132.665 188.109 133.556 187.584 134.675C187.144 135.624 186.981 136.668 187.115 137.695L187.452 140.269L183.032 131.682L180.611 126.98L180.147 126.076L176.403 118.803L176.211 118.425C176.235 118.645 176.25 118.859 176.25 119.065C176.255 119.269 176.245 119.466 176.225 119.658C176.11 120.779 175.598 121.765 174.818 122.362C174.188 122.845 173.436 123.042 172.691 123.042C171.876 123.042 171.067 122.806 170.42 122.447C169.399 121.881 168.603 121.02 167.912 120.102C167.736 119.871 167.567 119.636 167.404 119.4C167.291 119.24 167.179 119.078 167.069 118.912C166.972 118.774 166.876 118.633 166.779 118.492C165.948 117.301 165.677 115.812 166.034 114.409C166.234 113.623 166.613 112.923 167.138 112.353C167.067 112.382 166.998 112.416 166.928 112.452C165.067 113.397 163.914 115.273 163.914 117.349C163.914 118.223 164.119 119.063 164.522 119.847L164.654 120.102L167.729 126.076L168.193 126.98L170.613 131.682L185.432 160.484L173.592 150.003C173.028 149.486 172.362 149.11 171.612 148.887C170.945 148.683 170.242 148.615 169.521 148.68C167.98 148.811 166.532 149.535 165.445 150.717L165.335 150.839C164.31 152.006 163.75 153.46 163.755 154.951C163.76 156.48 164.361 157.867 165.443 158.852L167.648 160.804L171.866 164.54L175.3 167.58L179.967 171.711L181.623 173.178L181.649 173.217C187.909 181.806 195.016 182.913 198.55 183.056C199.075 183.078 199.519 183.078 199.871 183.078H200.24H200.535H200.819C203.835 183.121 206.321 185.777 208.079 188.499L207.679 188.729L207.283 188.955C205.654 186.433 203.415 184.017 200.806 183.981C200.643 183.978 200.455 183.978 200.242 183.978L199.871 183.981H199.87C199.438 183.981 198.874 183.981 198.201 183.944C194.437 183.745 187.264 182.434 180.944 173.785L178.602 171.711L175.3 168.789L171.866 165.747L166.283 160.804L164.835 159.522C163.56 158.359 162.854 156.738 162.849 154.956C162.842 153.184 163.526 151.462 164.774 150.11L164.915 149.962C166.139 148.7 167.738 147.928 169.441 147.782C170.276 147.707 171.096 147.787 171.876 148.022C172.755 148.287 173.541 148.729 174.21 149.341L174.249 149.377L182.419 156.609L169.592 131.682L167.174 126.98H124.55H120.554H119.885C116.564 126.98 113.863 124.292 113.863 120.991V59.5321C113.863 56.2305 116.564 53.5455 119.885 53.5455H124.55H181.713C184.932 53.5455 187.569 56.0654 187.731 59.2262C187.735 59.3282 187.738 59.4301 187.738 59.5321V120.991C187.738 124.292 185.034 126.98 181.713 126.98H181.63L184.05 131.682L186.248 135.955C186.343 135.387 186.514 134.828 186.761 134.296C187.333 133.073 188.251 132.087 189.423 131.427C189.504 131.383 189.582 131.342 189.662 131.301C189.948 131.153 190.258 131.024 190.581 130.92C193.526 129.949 196.686 131.179 198.198 133.85C198.266 132.99 198.506 132.167 198.892 131.425C199.495 130.262 200.455 129.293 201.676 128.672C203.207 127.892 204.951 127.754 206.587 128.278C208.158 128.783 209.449 129.844 210.243 131.276C210.465 129.541 211.528 127.97 213.196 127.123C214.505 126.458 215.995 126.339 217.394 126.788C218.791 127.237 219.929 128.201 220.598 129.499L220.613 129.531L229.688 150.877ZM175.275 119.888C175.295 119.784 175.312 119.675 175.322 119.566C175.397 118.842 175.287 118.034 174.975 117.021C174.925 116.861 174.877 116.697 174.829 116.531L174.828 116.527L174.827 116.525L174.827 116.525L174.787 116.388L174.779 116.36C174.586 115.706 174.39 115.042 174.135 114.438C173.785 113.606 173.326 112.885 172.616 112.448C171.858 111.982 171.136 111.751 170.432 111.751C170.164 111.751 169.897 111.785 169.634 111.853C169.387 111.916 169.143 112.008 168.901 112.132C167.9 112.642 167.194 113.528 166.913 114.63C166.622 115.781 166.845 117.002 167.523 117.98C167.624 118.121 167.721 118.264 167.817 118.405L167.897 118.522C167.982 118.644 168.066 118.766 168.151 118.888C168.439 119.301 168.74 119.716 169.067 120.102C169.59 120.723 170.176 121.279 170.862 121.661C171.839 122.202 173.27 122.408 174.267 121.646C174.775 121.258 175.134 120.629 175.275 119.888ZM175.173 114.431L176.655 117.313L181.166 126.076H181.713C184.534 126.076 186.829 123.797 186.829 120.991V59.5321C186.829 59.4034 186.825 59.2772 186.812 59.151C186.619 56.5243 184.404 54.4462 181.713 54.4462H124.55H119.885C117.064 54.4462 114.769 56.7282 114.769 59.5321V120.991C114.769 123.797 117.064 126.076 119.885 126.076H120.361H124.55H166.708L163.716 120.26C163.689 120.206 163.662 120.155 163.638 120.102C163.218 119.235 163.005 118.308 163.005 117.349C163.005 114.934 164.351 112.749 166.512 111.651C166.906 111.452 167.311 111.295 167.719 111.183C168.317 111.018 168.925 110.942 169.526 110.952C170.366 110.758 171.228 110.838 172.105 111.183C172.432 111.311 172.762 111.479 173.092 111.68C173.856 112.149 174.376 112.853 174.765 113.642C174.823 113.761 174.88 113.882 174.933 114.006C174.933 114.006 174.933 114.009 174.936 114.009C175.019 114.145 175.097 114.285 175.173 114.431ZM212.871 77.6836H238.239C238.519 77.6836 238.747 77.9094 238.747 78.1886C238.747 78.4678 238.519 78.6935 238.239 78.6935H212.871C212.59 78.6935 212.363 78.4678 212.363 78.1886C212.363 77.9094 212.59 77.6836 212.871 77.6836ZM147.529 181.82H175.913C176.162 181.82 176.367 182.022 176.367 182.272C176.367 182.522 176.162 182.723 175.913 182.723H147.529C147.28 182.723 147.077 182.522 147.077 182.272C147.077 182.022 147.28 181.82 147.529 181.82ZM131.684 158.677H124.55H106.316C106.035 158.677 105.808 158.903 105.808 159.18C105.808 159.459 106.035 159.685 106.316 159.685H124.55H131.684C131.964 159.685 132.192 159.459 132.192 159.18C132.192 158.903 131.964 158.677 131.684 158.677ZM98.3299 164.261H123.697C123.978 164.261 124.205 164.487 124.205 164.766C124.205 165.043 123.978 165.268 123.697 165.268H98.3299C98.0491 165.268 97.8219 165.043 97.8219 164.766C97.8219 164.487 98.0491 164.261 98.3299 164.261ZM58.4213 137.812C57.8498 137.63 57.2954 137.486 56.7606 137.375C56.763 137.431 56.7606 137.486 56.7557 137.542C54.6651 137.297 52.5037 137.273 50.3936 137.467C50.3912 137.438 50.3887 137.409 50.3912 137.38C49.9516 137.479 49.6072 137.586 49.3679 137.671C49.1359 137.751 49.0016 137.809 48.9747 137.821C48.8526 137.875 48.7988 138.018 48.8526 138.142C48.9063 138.263 49.0528 138.319 49.175 138.263C49.1774 138.261 49.2116 138.246 49.2726 138.224C49.9003 137.982 53.4904 136.753 58.2723 138.273C58.2967 138.28 58.3236 138.285 58.348 138.285C58.4506 138.285 58.5458 138.22 58.58 138.115C58.6215 137.989 58.5507 137.853 58.4213 137.812ZM40.3536 143.616C40.3536 142.888 40.9495 142.296 41.6846 142.296C42.4173 142.296 43.0132 142.888 43.0132 143.616C43.0132 144.347 42.4173 144.939 41.6846 144.939H41.6748C41.2523 144.937 40.8787 144.738 40.6393 144.432C40.4586 144.209 40.3536 143.925 40.3536 143.616Z" fill="#444040"/>
<path opacity="0.3" fill-rule="evenodd" clip-rule="evenodd" d="M38.8882 141.269L36.3947 135.088C37.5914 134.612 38.8272 134.457 39.9848 134.588L41.4819 138.297C40.4244 139.142 39.5525 140.14 38.8882 141.269ZM49.1212 158.325C49.1212 159.445 48.4081 160.399 47.4068 160.763C47.6852 160.865 47.988 160.921 48.3031 160.921C49.7465 160.921 50.9138 159.758 50.9138 158.325V157.252H49.1212V158.325ZM59.0929 158.325V157.252H57.3003V158.325C57.3003 159.758 58.4677 160.921 59.9111 160.921C60.2261 160.921 60.5289 160.865 60.8074 160.763C59.806 160.399 59.0929 159.445 59.0929 158.325Z" fill="#444040"/>
<path fill-rule="evenodd" clip-rule="evenodd" d="M153.696 76.4601V77.0257V88.6202H141.428V78.611C141.428 77.4239 142.398 76.4601 143.592 76.4601H152.538C151.752 76.0644 150.88 75.6031 149.996 75.0933C145.934 72.7579 143.8 70.7187 143.465 68.8615C143.343 68.1794 143.409 67.1695 144.422 66.2251C145.228 65.4725 146.205 65.1812 147.243 65.3779C150.64 66.0212 154.218 71.9981 155.867 75.1055H154.02C153.566 74.2898 153.014 73.3454 152.399 72.3962C150.298 69.1553 148.359 67.2229 146.94 66.9534C146.83 66.934 146.723 66.9219 146.62 66.9219C146.222 66.9219 145.868 67.0772 145.526 67.3977C145.009 67.8808 145.001 68.2838 145.055 68.5799C145.414 70.573 149.832 73.343 153.696 75.2536V76.4601ZM158.353 75.2657C160.91 71.8112 164.417 67.9512 166.456 67.9439H166.464C166.766 67.9439 167.162 68.0216 167.548 68.6091C167.873 69.1019 167.936 69.5656 167.746 70.0681C167.233 71.413 164.986 72.9789 161.413 74.4792C160.329 74.9356 159.261 75.324 158.353 75.6347V76.4601V77.3414V88.6202H170.62V78.611C170.62 77.4239 169.653 76.4601 168.459 76.4601H160.834C164.205 75.1589 168.312 73.1172 169.255 70.6362C169.629 69.653 169.507 68.6479 168.898 67.7279C168.141 66.582 167.16 66.3392 166.461 66.3392H166.449C164.551 66.3465 162.165 68.0871 159.152 71.6631C158.096 72.9182 157.168 74.1587 156.492 75.1055H158.353V75.2657ZM170.62 93.3177V103.329C170.62 104.516 169.653 105.478 168.459 105.478H158.353V93.3177H170.62ZM163.193 160.804C161.923 160.804 160.895 161.828 160.895 163.091V169.425C160.895 170.689 161.923 171.711 163.193 171.711H169.568C170.838 171.711 171.866 170.689 171.866 169.425V165.747L166.283 160.804H163.193ZM175.3 169.425C175.3 170.689 176.328 171.711 177.6 171.711H178.602L175.3 168.789V169.425ZM148.789 160.804H155.161C156.431 160.804 157.462 161.828 157.462 163.091V169.425C157.462 170.689 156.431 171.711 155.161 171.711H148.789C147.519 171.711 146.489 170.689 146.489 169.425V163.091C146.489 161.828 147.519 160.804 148.789 160.804ZM153.696 93.3177H141.428V103.329C141.428 104.516 142.398 105.478 143.592 105.478H153.696V93.3177ZM140.757 160.804H134.385C133.115 160.804 132.084 161.828 132.084 163.091V169.425C132.084 170.689 133.115 171.711 134.385 171.711H140.757C142.027 171.711 143.057 170.689 143.057 169.425V163.091C143.057 161.828 142.027 160.804 140.757 160.804ZM40.8201 153.256C40.1826 153.589 39.0275 151.768 39.0275 151.768L41.2768 150.87C41.4526 152.285 41.2768 153.016 40.8201 153.256Z" fill="white"/>
<path opacity="0.2" d="M56.763 137.338C56.763 137.406 56.7605 137.474 56.7557 137.542C54.6651 137.297 52.5037 137.273 50.3936 137.467C50.3887 137.426 50.3887 137.382 50.3887 137.338C50.3887 137.122 50.4107 136.916 50.4522 136.712C51.3901 136.513 52.45 136.399 53.5759 136.399C54.7017 136.399 55.7617 136.513 56.6995 136.712C56.741 136.916 56.763 137.122 56.763 137.338Z" fill="#444040"/>
<path opacity="0.2" d="M118.999 114.47V60.8867C118.999 59.1145 120.444 57.6798 122.225 57.6798H176.13C176.653 57.6798 176.914 58.3085 176.545 58.6751L120 114.883C119.631 115.249 118.999 114.989 118.999 114.47Z" fill="white"/>
<path opacity="0.1" fill-rule="evenodd" clip-rule="evenodd" d="M56.658 115.878C56.658 114.261 57.9817 112.945 59.6082 112.945H120.295V118.81H59.6082C57.9817 118.81 56.658 117.495 56.658 115.878ZM59.6082 117.801H119.787V116.38H58.348C58.0671 116.38 57.84 116.155 57.84 115.878C57.84 115.599 58.0671 115.373 58.348 115.373H119.787V113.955H59.6082C58.5409 113.955 57.6739 114.817 57.6739 115.878C57.6739 116.939 58.5409 117.801 59.6082 117.801Z" fill="#444040"/>
</svg>
