<svg width="73" height="69" viewBox="0 0 73 69" fill="none" xmlns="http://www.w3.org/2000/svg">
<path d="M34.4027 11.37L17.2304 18.0641C10.5159 20.6815 7.86425 27.1429 10.6371 34.1352L17.0367 50.2728C19.8017 57.2454 26.1819 60.1861 32.8963 57.5687L50.0687 50.8747C56.7831 48.2573 59.415 41.8036 56.6499 34.831L50.2504 18.6934C47.4775 11.7011 41.1172 8.75265 34.4027 11.37" fill="url(#paint0_linear_1_25)"/>
<g opacity="0.5" filter="url(#filter0_f_1_25)">
<path d="M36.0394 18.4601L23.1726 23.4543C18.5056 25.2659 16.7325 28.715 18.3506 32.8177L23.8309 46.7132C25.4755 50.8832 29.116 52.1691 33.7831 50.3575L46.6498 45.3633C51.3921 43.5226 53.1096 40.1571 51.465 35.9871L45.9847 22.0916C44.3666 17.9889 40.7817 16.6194 36.0394 18.4601Z" fill="#30AD31"/>
</g>
<g filter="url(#filter1_b_1_25)">
<mask id="path-3-outside-1_1_25" maskUnits="userSpaceOnUse" x="23.3646" y="20.6213" width="45" height="45" fill="black">
<rect fill="white" x="23.3646" y="20.6213" width="45" height="45"/>
<path d="M54.9342 21.6213H36.4518C29.2251 21.6213 24.3646 26.6644 24.3646 34.1654V51.4771C24.3646 58.9569 29.2251 64 36.4518 64H54.9342C62.1609 64 67 58.9569 67 51.4771V34.1654C67 26.6644 62.1609 21.6213 54.9342 21.6213"/>
</mask>
<path d="M54.9342 21.6213H36.4518C29.2251 21.6213 24.3646 26.6644 24.3646 34.1654V51.4771C24.3646 58.9569 29.2251 64 36.4518 64H54.9342C62.1609 64 67 58.9569 67 51.4771V34.1654C67 26.6644 62.1609 21.6213 54.9342 21.6213" fill="#72DC60" fill-opacity="0.35"/>
<path d="M54.9342 22.6213C55.4865 22.6213 55.9342 22.1736 55.9342 21.6213C55.9342 21.069 55.4865 20.6213 54.9342 20.6213V22.6213ZM54.9342 20.6213C54.3819 20.6213 53.9342 21.069 53.9342 21.6213C53.9342 22.1736 54.3819 22.6213 54.9342 22.6213V20.6213ZM54.9342 20.6213H36.4518V22.6213H54.9342V20.6213ZM36.4518 20.6213C32.5975 20.6213 29.3054 21.9715 26.9781 24.3866C24.6539 26.7985 23.3646 30.1964 23.3646 34.1654H25.3646C25.3646 30.6334 26.5056 27.7593 28.4183 25.7744C30.3279 23.7927 33.0793 22.6213 36.4518 22.6213V20.6213ZM23.3646 34.1654V51.4771H25.3646V34.1654H23.3646ZM23.3646 51.4771C23.3646 55.4362 24.6544 58.8289 26.9785 61.2378C29.3057 63.6499 32.5976 65 36.4518 65V63C33.0792 63 30.3276 61.8286 28.4179 59.8492C26.5051 57.8666 25.3646 54.9978 25.3646 51.4771H23.3646ZM36.4518 65H54.9342V63H36.4518V65ZM54.9342 65C58.7885 65 62.0756 63.6497 64.3976 61.2369C66.7164 58.8275 68 55.435 68 51.4771H66C66 54.999 64.8641 57.868 62.9566 59.8501C61.0523 61.8288 58.3065 63 54.9342 63V65ZM68 51.4771V34.1654H66V51.4771H68ZM68 34.1654C68 30.1976 66.7168 26.7998 64.3981 24.3875C62.0759 21.9717 58.7886 20.6213 54.9342 20.6213V22.6213C58.3065 22.6213 61.052 23.7925 62.9562 25.7735C64.8636 27.7579 66 30.6322 66 34.1654H68Z" fill="url(#paint1_linear_1_25)" mask="url(#path-3-outside-1_1_25)"/>
</g>
<g filter="url(#filter2_bd_1_25)">
<mask id="path-5-inside-2_1_25" fill="white">
<path fill-rule="evenodd" clip-rule="evenodd" d="M56.2776 48.238C57.1602 48.238 57.8764 47.5261 57.8764 46.6488V42.7246C57.8764 41.8473 57.1602 41.1354 56.2776 41.1354H44.1436C43.4529 38.8745 41.3595 37.2132 38.8611 37.2132C35.8041 37.2132 33.3163 39.686 33.3163 42.7246C33.3163 45.7652 35.8041 48.238 38.8611 48.238C41.3595 48.238 43.4529 46.5768 44.1436 44.3138H48.6459V46.6488C48.6459 47.5261 49.3622 48.238 50.2447 48.238C51.1273 48.238 51.8435 47.5261 51.8435 46.6488V44.3138H54.6788V46.6488C54.6788 47.5261 55.3951 48.238 56.2776 48.238ZM36.5118 42.7243C36.5118 41.436 37.5671 40.3893 38.861 40.3893C40.155 40.3893 41.2102 41.436 41.2102 42.7243C41.2102 44.0105 40.155 45.0573 38.861 45.0573C37.5671 45.0573 36.5118 44.0105 36.5118 42.7243Z"/>
</mask>
<path fill-rule="evenodd" clip-rule="evenodd" d="M56.2776 48.238C57.1602 48.238 57.8764 47.5261 57.8764 46.6488V42.7246C57.8764 41.8473 57.1602 41.1354 56.2776 41.1354H44.1436C43.4529 38.8745 41.3595 37.2132 38.8611 37.2132C35.8041 37.2132 33.3163 39.686 33.3163 42.7246C33.3163 45.7652 35.8041 48.238 38.8611 48.238C41.3595 48.238 43.4529 46.5768 44.1436 44.3138H48.6459V46.6488C48.6459 47.5261 49.3622 48.238 50.2447 48.238C51.1273 48.238 51.8435 47.5261 51.8435 46.6488V44.3138H54.6788V46.6488C54.6788 47.5261 55.3951 48.238 56.2776 48.238ZM36.5118 42.7243C36.5118 41.436 37.5671 40.3893 38.861 40.3893C40.155 40.3893 41.2102 41.436 41.2102 42.7243C41.2102 44.0105 40.155 45.0573 38.861 45.0573C37.5671 45.0573 36.5118 44.0105 36.5118 42.7243Z" fill="url(#paint2_linear_1_25)"/>
<path d="M44.1436 41.1354L43.9523 41.1938L43.9956 41.3354H44.1436V41.1354ZM44.1436 44.3138V44.1138H43.9955L43.9523 44.2554L44.1436 44.3138ZM48.6459 44.3138H48.8459V44.1138H48.6459V44.3138ZM51.8435 44.3138V44.1138H51.6435V44.3138H51.8435ZM54.6788 44.3138H54.8788V44.1138H54.6788V44.3138ZM57.6764 46.6488C57.6764 47.4145 57.0509 48.038 56.2776 48.038V48.438C57.2695 48.438 58.0764 47.6377 58.0764 46.6488H57.6764ZM57.6764 42.7246V46.6488H58.0764V42.7246H57.6764ZM56.2776 41.3354C57.0509 41.3354 57.6764 41.9589 57.6764 42.7246H58.0764C58.0764 41.7357 57.2695 40.9354 56.2776 40.9354V41.3354ZM44.1436 41.3354H56.2776V40.9354H44.1436V41.3354ZM38.8611 37.4132C41.268 37.4132 43.2863 39.0136 43.9523 41.1938L44.3349 41.0769C43.6195 38.7354 41.451 37.0132 38.8611 37.0132V37.4132ZM33.5163 42.7246C33.5163 39.7976 35.9134 37.4132 38.8611 37.4132V37.0132C35.6948 37.0132 33.1163 39.5744 33.1163 42.7246H33.5163ZM38.8611 48.038C35.9135 48.038 33.5163 45.6537 33.5163 42.7246H33.1163C33.1163 45.8768 35.6948 48.438 38.8611 48.438V48.038ZM43.9523 44.2554C43.2862 46.4377 41.268 48.038 38.8611 48.038V48.438C41.451 48.438 43.6196 46.7158 44.3349 44.3722L43.9523 44.2554ZM48.6459 44.1138H44.1436V44.5138H48.6459V44.1138ZM48.8459 46.6488V44.3138H48.4459V46.6488H48.8459ZM50.2447 48.038C49.4715 48.038 48.8459 47.4145 48.8459 46.6488H48.4459C48.4459 47.6377 49.2528 48.438 50.2447 48.438V48.038ZM51.6435 46.6488C51.6435 47.4145 51.018 48.038 50.2447 48.038V48.438C51.2366 48.438 52.0435 47.6377 52.0435 46.6488H51.6435ZM51.6435 44.3138V46.6488H52.0435V44.3138H51.6435ZM54.6788 44.1138H51.8435V44.5138H54.6788V44.1138ZM54.8788 46.6488V44.3138H54.4788V46.6488H54.8788ZM56.2776 48.038C55.5044 48.038 54.8788 47.4145 54.8788 46.6488H54.4788C54.4788 47.6377 55.2857 48.438 56.2776 48.438V48.038ZM38.861 40.1893C37.4579 40.1893 36.3118 41.3243 36.3118 42.7243H36.7118C36.7118 41.5477 37.6763 40.5893 38.861 40.5893V40.1893ZM41.4102 42.7243C41.4102 41.3243 40.2642 40.1893 38.861 40.1893V40.5893C40.0458 40.5893 41.0102 41.5477 41.0102 42.7243H41.4102ZM38.861 45.2573C40.2641 45.2573 41.4102 44.1224 41.4102 42.7243H41.0102C41.0102 43.8987 40.0459 44.8573 38.861 44.8573V45.2573ZM36.3118 42.7243C36.3118 44.1224 37.458 45.2573 38.861 45.2573V44.8573C37.6761 44.8573 36.7118 43.8987 36.7118 42.7243H36.3118Z" fill="url(#paint3_linear_1_25)" fill-opacity="0.5" mask="url(#path-5-inside-2_1_25)"/>
</g>
<defs>
<filter id="filter0_f_1_25" x="0.764633" y="0.656921" width="68.3087" height="67.5006" filterUnits="userSpaceOnUse" color-interpolation-filters="sRGB">
<feFlood flood-opacity="0" result="BackgroundImageFix"/>
<feBlend mode="normal" in="SourceGraphic" in2="BackgroundImageFix" result="shape"/>
<feGaussianBlur stdDeviation="8.5" result="effect1_foregroundBlur_1_25"/>
</filter>
<filter id="filter1_b_1_25" x="-0.635361" y="-3.37868" width="92.6354" height="92.3787" filterUnits="userSpaceOnUse" color-interpolation-filters="sRGB">
<feFlood flood-opacity="0" result="BackgroundImageFix"/>
<feGaussianBlur in="BackgroundImageFix" stdDeviation="12"/>
<feComposite in2="SourceAlpha" operator="in" result="effect1_backgroundBlur_1_25"/>
<feBlend mode="normal" in="SourceGraphic" in2="effect1_backgroundBlur_1_25" result="shape"/>
</filter>
<filter id="filter2_bd_1_25" x="18.3163" y="22.2132" width="54.5601" height="41.0248" filterUnits="userSpaceOnUse" color-interpolation-filters="sRGB">
<feFlood flood-opacity="0" result="BackgroundImageFix"/>
<feGaussianBlur in="BackgroundImageFix" stdDeviation="7.5"/>
<feComposite in2="SourceAlpha" operator="in" result="effect1_backgroundBlur_1_25"/>
<feColorMatrix in="SourceAlpha" type="matrix" values="0 0 0 0 0 0 0 0 0 0 0 0 0 0 0 0 0 0 127 0" result="hardAlpha"/>
<feOffset dx="5" dy="5"/>
<feGaussianBlur stdDeviation="5"/>
<feColorMatrix type="matrix" values="0 0 0 0 0.454902 0 0 0 0 0.870588 0 0 0 0 0.376471 0 0 0 0.5 0"/>
<feBlend mode="normal" in2="effect1_backgroundBlur_1_25" result="effect2_dropShadow_1_25"/>
<feBlend mode="normal" in="SourceGraphic" in2="effect2_dropShadow_1_25" result="shape"/>
</filter>
<linearGradient id="paint0_linear_1_25" x1="45.6168" y1="6.99183" x2="30.5813" y2="50.4631" gradientUnits="userSpaceOnUse">
<stop stop-color="#9BF763"/>
<stop offset="1" stop-color="#26AB5B"/>
</linearGradient>
<linearGradient id="paint1_linear_1_25" x1="31.1515" y1="26.5585" x2="58.1497" y2="60.199" gradientUnits="userSpaceOnUse">
<stop stop-color="white" stop-opacity="0.25"/>
<stop offset="1" stop-color="white" stop-opacity="0"/>
</linearGradient>
<linearGradient id="paint2_linear_1_25" x1="56.1352" y1="39.2041" x2="28.8922" y2="41.1828" gradientUnits="userSpaceOnUse">
<stop stop-color="white"/>
<stop offset="1" stop-color="white" stop-opacity="0.2"/>
</linearGradient>
<linearGradient id="paint3_linear_1_25" x1="35.962" y1="40.9115" x2="56.8144" y2="41.168" gradientUnits="userSpaceOnUse">
<stop stop-color="white"/>
<stop offset="1" stop-color="white" stop-opacity="0"/>
</linearGradient>
</defs>
</svg>
