<svg width="428" height="268" viewBox="0 0 428 268" fill="none" xmlns="http://www.w3.org/2000/svg">
<circle cx="11" cy="168" r="32" fill="#D9D9D9" fill-opacity="0.1"/>
<circle cx="66" cy="145" r="11" fill="#D9D9D9" fill-opacity="0.1"/>
<path opacity="0.0416667" fill-rule="evenodd" clip-rule="evenodd" d="M359.863 65.5453C350.378 49.8881 353.041 29.9292 356.514 11.5658C360.799 -11.0892 361.27 -42.5277 381.596 -49.3563C402.221 -56.2856 414.937 -22.9189 435.217 -14.8749C455.462 -6.84483 484.426 -23.1182 496.562 -3.75652C508.596 15.443 492.75 40.9098 483.214 61.702C475.05 79.5037 464.917 98.5271 447.261 103.742C430.998 108.545 417.138 92.6676 401.502 85.8339C386.831 79.4222 368.559 79.902 359.863 65.5453Z" stroke="white" stroke-opacity="0.2"/>
<path opacity="0.0833333" fill-rule="evenodd" clip-rule="evenodd" d="M364.201 61.6945C356.008 45.1982 360.26 25.5675 365.192 7.60317C371.277 -14.5597 374.266 -45.8339 395.062 -50.7105C416.165 -55.659 426.157 -21.2145 445.715 -11.2794C465.24 -1.36155 495.398 -14.8285 505.935 5.60935C516.384 25.8761 498.557 49.7446 487.391 69.5541C477.831 86.5144 466.212 104.505 448.204 108.027C431.618 111.271 419.084 94.1407 404.055 85.8514C389.954 78.074 371.713 76.8207 364.201 61.6945Z" stroke="white" stroke-opacity="0.2"/>
<path opacity="0.125" fill-rule="evenodd" clip-rule="evenodd" d="M368.716 58.3835C361.877 41.1737 367.686 22.0205 374.04 4.59191C381.879 -16.91 387.364 -47.782 408.471 -50.6695C429.89 -53.5996 437.083 -18.3393 455.771 -6.58879C474.426 5.14137 505.548 -5.41674 514.407 15.9418C523.192 37.1216 503.519 59.21 490.808 77.8861C479.924 93.876 466.907 110.698 448.686 112.499C431.903 114.159 420.79 95.9068 406.482 86.2249C393.059 77.141 374.988 74.164 368.716 58.3835Z" stroke="white" stroke-opacity="0.2"/>
<path opacity="0.166667" fill-rule="evenodd" clip-rule="evenodd" d="M373.365 55.6272C367.932 37.8347 375.255 19.305 382.981 2.54474C392.514 -18.1326 400.453 -48.3674 421.711 -49.2438C443.284 -50.1332 447.623 -14.3256 465.297 -0.849007C482.941 12.6042 514.791 5.03529 521.904 27.152C528.958 49.0835 507.589 69.2239 493.429 86.6244C481.305 101.522 466.989 117.046 448.692 117.115C431.84 117.178 422.233 97.9419 408.756 86.9412C396.111 76.6198 378.348 71.9418 373.365 55.6272Z" stroke="white" stroke-opacity="0.2"/>
<path opacity="0.208333" fill-rule="evenodd" clip-rule="evenodd" d="M378.103 53.436C374.116 35.1964 382.897 17.4311 391.938 1.46672C403.092 -18.2287 413.424 -47.5961 434.672 -46.4549C456.234 -45.2968 457.686 -9.21425 474.213 5.88575C490.711 20.9596 523.047 16.4375 528.36 39.1441C533.628 61.6605 510.727 79.6994 495.225 95.6919C481.953 109.384 466.447 123.493 448.214 121.827C431.421 120.293 423.392 100.22 410.849 87.9843C399.08 76.5041 381.759 70.1607 378.103 53.436Z" stroke="white" stroke-opacity="0.2"/>
<path opacity="0.25" fill-rule="evenodd" clip-rule="evenodd" d="M382.884 51.8163C380.375 33.2683 390.546 16.4026 400.832 1.35568C413.522 -17.2079 426.17 -45.4845 447.246 -42.3342C468.633 -39.1375 467.186 -3.05469 482.44 13.5539C497.667 30.1337 530.242 28.6928 533.714 51.8163C537.158 74.7463 512.897 90.5466 496.173 105.009C481.853 117.392 465.275 129.977 447.246 126.591C430.639 123.471 424.25 102.714 412.735 89.3359C401.932 76.7843 385.185 68.8237 382.884 51.8163Z" stroke="white" stroke-opacity="0.2"/>
<path opacity="0.291667" fill-rule="evenodd" clip-rule="evenodd" d="M387.662 50.7699C386.649 32.0547 398.134 16.217 409.587 2.20193C423.717 -15.0886 438.583 -42.0592 459.327 -36.9238C480.376 -31.7127 476.042 4.09573 489.906 22.0864C503.746 40.046 536.313 41.6973 537.918 65.0619C539.51 88.2308 514.076 101.672 496.255 114.495C480.998 125.474 463.474 136.44 445.785 131.358C429.491 126.677 424.791 105.393 414.392 90.9753C404.636 77.4476 388.591 67.9306 387.662 50.7699Z" stroke="white" stroke-opacity="0.2"/>
<path opacity="0.333333" fill-rule="evenodd" clip-rule="evenodd" d="M392.391 50.2944C392.882 31.5544 405.593 16.8652 418.126 3.98874C433.589 -11.8971 450.56 -37.3564 470.813 -30.275C491.364 -23.0892 484.176 12.1723 496.545 31.4082C508.893 50.6108 541.204 55.3418 540.93 78.7696C540.659 102.001 514.243 112.981 495.462 124.067C479.383 133.558 461.047 142.822 443.832 136.083C427.976 129.876 425 108.228 415.796 92.8796C407.161 78.4789 391.941 67.4778 392.391 50.2944Z" stroke="white" stroke-opacity="0.2"/>
<path opacity="0.375" fill-rule="evenodd" clip-rule="evenodd" d="M397.026 50.3829C399.017 31.7608 412.857 18.3319 426.375 6.69203C443.052 -7.66819 462 -31.4224 481.608 -22.449C501.505 -13.3432 491.518 21.1031 502.298 41.4378C513.059 61.7373 544.868 69.512 542.717 92.8246C540.584 115.942 513.389 124.377 493.791 133.641C477.012 141.573 458.002 149.064 441.394 140.72C426.096 133.034 424.866 111.186 416.928 95.0238C409.48 79.8598 395.2 67.4583 397.026 50.3829Z" stroke="white" stroke-opacity="0.2"/>
<path opacity="0.416667" fill-rule="evenodd" clip-rule="evenodd" d="M401.521 51.0245C404.998 32.6619 419.862 20.5955 434.261 10.2808C452.026 -2.4445 472.806 -24.3129 491.62 -13.5157C510.711 -2.55919 498.001 30.8097 507.11 52.0885C516.202 73.3304 547.267 84.0895 543.255 107.11C539.277 129.937 511.509 135.763 491.243 143.135C473.892 149.446 454.355 155.108 438.478 145.222C423.855 136.115 424.381 114.234 417.769 97.3813C411.565 81.5693 398.333 67.8618 401.521 51.0245Z" stroke="white" stroke-opacity="0.2"/>
<path opacity="0.458333" fill-rule="evenodd" clip-rule="evenodd" d="M405.833 52.2037C410.769 34.2405 426.543 23.6284 441.715 14.7174C460.432 3.72378 482.887 -16.0924 500.763 -3.55353C518.904 9.17027 503.566 41.2078 510.935 63.2687C518.29 85.2915 548.374 98.9531 542.532 121.506C536.739 143.869 508.61 147.042 487.83 152.465C470.039 157.109 450.122 160.898 435.098 149.544C421.26 139.087 423.539 117.339 418.303 99.9237C413.39 83.584 401.307 68.6749 405.833 52.2037Z" stroke="white" stroke-opacity="0.2"/>
<path opacity="0.5" fill-rule="evenodd" clip-rule="evenodd" d="M409.92 53.9012C416.277 36.474 432.842 27.397 448.67 19.9575C468.198 10.7793 492.155 -6.83375 508.958 7.35127C526.01 21.7455 508.163 52.2079 513.734 74.883C519.296 97.5189 548.17 113.979 540.543 135.892C532.979 157.622 504.703 158.117 483.567 161.551C465.472 164.491 445.326 166.378 431.27 153.644C418.323 141.916 422.336 120.466 418.517 102.621C414.933 85.8782 404.091 69.8808 409.92 53.9012Z" stroke="white" stroke-opacity="0.2"/>
<path opacity="0.541667" fill-rule="evenodd" clip-rule="evenodd" d="M413.74 56.0935C421.47 39.335 438.7 31.8622 455.064 25.9508C475.253 18.6578 500.531 3.38191 516.134 19.1052C531.966 35.0604 511.745 63.7157 515.478 86.8325C519.204 109.909 546.648 129.043 537.293 150.15C528.016 171.08 499.808 168.894 478.477 170.312C460.215 171.526 439.995 171.497 427.013 157.48C415.056 144.569 420.773 123.582 418.399 105.443C416.171 88.4238 406.652 71.46 413.74 56.0935Z" stroke="white" stroke-opacity="0.2"/>
<path opacity="0.583333" fill-rule="evenodd" clip-rule="evenodd" d="M417.256 58.7538C426.3 42.7915 444.063 36.9797 460.839 32.6414C481.536 27.2892 507.942 14.4667 522.225 31.6085C536.718 49.0032 514.276 75.6334 516.142 99.0159C518.004 122.358 543.81 144.019 532.799 164.159C521.879 184.131 493.953 179.281 472.59 178.672C454.3 178.151 434.159 176.206 422.351 161.012C411.474 147.018 418.852 126.652 417.94 108.357C417.085 91.1913 408.963 73.3902 417.256 58.7538Z" stroke="white" stroke-opacity="0.2"/>
<path opacity="0.625" fill-rule="evenodd" clip-rule="evenodd" d="M420.43 61.8511C430.719 46.8066 448.881 42.7001 465.941 39.9679C486.988 36.5972 514.322 26.3256 527.176 44.7556C540.219 63.4574 515.728 87.8598 515.712 111.33C515.696 134.76 539.667 158.784 527.083 177.804C514.604 196.665 487.173 189.187 465.941 186.556C447.762 184.304 427.854 180.459 417.308 164.203C407.594 149.231 416.577 129.642 417.136 111.33C417.66 94.1491 410.996 75.6461 420.43 61.8511Z" stroke="white" stroke-opacity="0.2"/>
<path opacity="0.666667" fill-rule="evenodd" clip-rule="evenodd" d="M423.229 65.3516C434.685 51.3393 453.107 48.9693 470.321 47.8641C491.558 46.5005 519.612 38.8581 530.939 58.4358C542.434 78.3024 516.08 100.291 514.182 123.671C512.288 147.01 534.242 173.214 520.181 190.969C506.238 208.576 479.511 198.527 458.57 193.895C440.641 189.928 421.117 184.211 411.914 167.019C403.438 151.183 413.956 132.519 415.981 114.33C417.88 97.2642 412.725 78.2002 423.229 65.3516Z" stroke="white" stroke-opacity="0.2"/>
<path opacity="0.708333" fill-rule="evenodd" clip-rule="evenodd" d="M425.623 69.2182C438.159 56.3447 456.7 55.7293 473.937 56.2594C495.203 56.9133 523.762 51.9582 533.477 72.5348C543.336 93.415 515.319 112.823 511.555 135.934C507.796 159.004 527.567 187.189 512.136 203.545C496.834 219.763 471.014 207.22 450.524 200.621C432.981 194.971 413.99 187.425 406.2 169.426C399.026 152.848 411.001 135.252 414.476 117.323C417.736 100.502 414.128 81.0225 425.623 69.2182Z" stroke="white" stroke-opacity="0.2"/>
<path opacity="0.75" fill-rule="evenodd" clip-rule="evenodd" d="M427.583 73.4111C441.103 61.7744 459.623 62.9183 476.752 65.0796C497.884 67.7461 526.732 65.516 534.761 86.9349C542.908 108.67 513.442 125.349 507.839 148.015C502.246 170.642 519.681 200.593 502.998 215.424C486.454 230.131 461.738 215.189 441.855 206.673C424.832 199.382 406.518 190.066 400.201 171.397C394.382 154.202 407.723 137.808 412.621 120.277C417.218 103.829 415.186 84.0813 427.583 73.4111Z" stroke="white" stroke-opacity="0.2"/>
<path opacity="0.791667" fill-rule="evenodd" clip-rule="evenodd" d="M429.084 77.8878C443.486 67.5765 461.844 70.4709 478.735 74.2471C499.573 78.9058 528.49 79.4177 534.771 101.516C541.144 123.94 510.454 137.764 503.055 159.813C495.669 181.823 510.637 213.312 492.828 226.506C475.168 239.589 451.744 222.362 432.62 211.995C416.246 203.119 398.748 192.103 393.952 172.907C389.534 155.225 404.137 140.158 410.423 123.158C416.321 107.208 415.879 87.3427 429.084 77.8878Z" stroke="white" stroke-opacity="0.2"/>
<path opacity="0.833333" fill-rule="evenodd" clip-rule="evenodd" d="M430.107 82.604C445.28 73.6965 463.336 78.3195 479.86 83.6818C500.245 90.2973 529.011 93.5473 533.497 116.156C538.048 139.099 506.366 149.962 497.228 171.226C488.106 192.453 500.493 225.241 481.694 236.697C463.053 248.057 441.098 228.676 422.878 216.536C407.278 206.142 390.73 193.51 387.491 173.932C384.507 155.9 400.263 142.273 407.887 125.933C415.041 110.603 416.194 90.7717 430.107 82.604Z" stroke="white" stroke-opacity="0.2"/>
<path opacity="0.875" fill-rule="evenodd" clip-rule="evenodd" d="M430.633 87.5132C446.462 80.0774 464.079 86.3937 480.11 93.3013C499.888 101.823 528.284 107.787 530.939 130.735C533.635 154.021 501.202 161.841 490.394 182.158C479.605 202.44 489.316 236.277 469.671 245.908C450.189 255.458 429.873 234.071 412.694 220.251C397.987 208.418 382.515 194.266 380.857 174.456C379.331 156.209 396.119 144.127 405.024 128.572C413.38 113.978 416.118 94.3315 430.633 87.5132Z" stroke="white" stroke-opacity="0.2"/>
<path opacity="0.916667" fill-rule="evenodd" clip-rule="evenodd" d="M430.649 92.5679C447.014 86.6602 464.058 94.6218 479.474 103.022C498.493 113.386 526.303 122.017 527.109 145.129C527.927 168.583 494.991 173.3 482.595 192.516C470.221 211.698 477.183 246.326 456.84 254.059C436.667 261.727 418.142 238.496 402.137 223.1C388.434 209.919 374.156 194.355 374.093 174.463C374.035 156.141 391.728 145.696 401.846 131.044C411.34 117.297 415.642 97.9848 430.649 92.5679Z" stroke="white" stroke-opacity="0.2"/>
<path opacity="0.958333" fill-rule="evenodd" clip-rule="evenodd" d="M430.144 97.7187C446.921 93.3843 463.262 102.931 477.946 112.76C496.062 124.886 523.074 136.12 522.024 159.22C520.959 182.662 487.77 184.24 473.881 202.208C460.016 220.145 464.176 255.301 443.29 261.077C422.58 266.805 405.987 241.906 391.278 225.053C378.683 210.624 365.707 193.765 367.239 173.943C368.65 155.686 387.113 146.957 398.367 133.319C408.927 120.524 414.761 101.693 430.144 97.7187Z" stroke="white" stroke-opacity="0.2"/>
<path fill-rule="evenodd" clip-rule="evenodd" d="M429.115 102.916C446.175 100.188 461.688 111.247 475.528 122.43C492.603 136.226 518.612 149.977 515.714 172.89C512.774 196.142 479.585 194.569 464.308 211.153C449.058 227.707 450.384 263.124 429.115 266.899C408.024 270.642 393.491 244.266 380.188 226.083C368.798 210.515 357.222 192.492 360.338 172.89C363.207 154.836 382.299 147.89 394.604 135.371C406.149 123.625 413.471 105.418 429.115 102.916Z" stroke="white" stroke-opacity="0.2"/>
</svg>
