<svg width="279" height="208" viewBox="0 0 279 208" fill="none" xmlns="http://www.w3.org/2000/svg">
<path d="M207.742 44.2646C207.742 44.9475 207.184 45.5022 206.497 45.5022C205.806 45.5022 205.248 44.9475 205.248 44.2646C205.248 43.5782 205.806 43.0235 206.497 43.0235C207.184 43.0235 207.742 43.5782 207.742 44.2646Z" fill="#444040"/>
<path d="M267.807 144.666C267.364 137.033 263.852 134.533 260.106 127.967L248.375 126.404C248.277 126.393 248.211 126.307 248.225 126.21C248.235 126.116 248.326 126.047 248.42 126.061L259.894 127.589C259.364 126.646 258.834 125.617 258.31 124.48L248.803 123.214C248.709 123.201 248.64 123.114 248.654 123.02C248.667 122.923 248.755 122.854 248.849 122.871L258.136 124.109C257.711 123.166 257.285 122.147 256.87 121.037L249.232 120.022C249.138 120.011 249.072 119.921 249.082 119.828C249.096 119.734 249.187 119.661 249.281 119.678L256.734 120.67C256.354 119.644 256.016 118.635 255.712 117.637L249.665 116.832C249.567 116.818 249.501 116.732 249.515 116.638C249.525 116.541 249.616 116.472 249.71 116.489L255.604 117.273C255.015 115.286 254.565 113.352 254.234 111.476L235.384 108.966L237.298 94.767L253.627 96.9406C254.558 84.9633 258.143 76.3798 252.859 71.3635C243.485 62.4577 218.856 83.0046 208.519 74.5286C203.972 70.8019 204.153 63.0713 205.872 54.4116L204.983 54.6195L206.106 53.2571C206.347 52.1305 206.608 50.9865 206.887 49.839H200.976C198.318 49.839 196.167 47.7001 196.167 45.0585V34.4366C196.167 31.7985 198.318 29.6595 200.976 29.6595H212.223C213.667 23.2774 214.037 18.3132 211.456 16.5729C205.203 12.3505 186.831 30.6406 168.724 46.6497L170.139 58.5958C170.255 59.5803 169.752 60.499 168.933 60.9566L169.487 65.6366C169.543 62.3467 173.508 60.1003 178.115 60.0379C180.829 60.0033 185.226 81.0009 189.858 86.2182L189.865 86.2286L200.348 98.414C200.627 98.7398 200.864 99.0969 201.053 99.4748C201.098 99.5406 201.14 99.6273 201.182 99.7451C201.189 99.759 201.192 99.7729 201.196 99.7867C201.283 99.9774 201.353 100.175 201.408 100.376C201.412 100.38 201.412 100.383 201.412 100.386C204.436 108.838 211.487 128.577 211.215 130.193L221.162 140.191C225.503 144.555 226.993 150.986 225.005 156.8C225.005 156.8 209.262 182.928 203.825 179.53C195.403 174.265 189.537 169.654 184.47 165.764C183.978 165.39 182.388 164.835 182.388 164.835C182.367 164.835 178.645 164.405 172.5 162.627C168.016 168.344 162.422 174.33 164.476 180.401C169.613 195.571 219.508 202.244 248.455 179.004C251.035 176.927 268.843 162.627 267.807 144.666ZM255.025 147.36L230.648 144.112L232.562 129.912L256.94 133.16L255.025 147.36Z" fill="#2129EE" fill-opacity="0.1"/>
<path d="M201.332 44.2646C201.332 44.9475 201.89 45.5022 202.577 45.5022C203.267 45.5022 203.825 44.9475 203.825 44.2646C203.825 43.5782 203.267 43.0235 202.577 43.0235C201.89 43.0235 201.332 43.5782 201.332 44.2646Z" fill="#2129EE" fill-opacity="0.1"/>
<path d="M177.84 97.2353C176.905 95.6164 175.967 93.7201 175.106 91.7753L175.102 91.7718L174.907 91.4078C174.851 91.2657 174.799 91.1201 174.753 90.9745C173.065 87.071 171.712 83.1051 171.294 80.9038L172.999 95.287L177.84 97.2353Z" fill="#2129EE" fill-opacity="0.1"/>
<path d="M169.623 66.8083L171.095 79.219L169.662 66.9539C169.648 66.9054 169.634 66.8569 169.623 66.8083Z" fill="#2129EE" fill-opacity="0.1"/>
<path d="M159.342 89.7924L156.692 67.4427C156.458 65.4494 154.637 64.0211 152.632 64.2569L144.52 65.2067L130.183 66.8846L119.068 68.1881L118.884 68.2089C116.875 68.4446 115.441 70.2507 115.679 72.2441L116.627 80.2521L120.439 112.437C120.676 114.43 122.493 115.855 124.502 115.622L136.063 114.27L158.251 111.67C160.256 111.435 161.693 109.629 161.456 107.632L159.342 89.7924ZM131.048 89.0262C130.577 88.5963 131.041 87.8371 131.641 88.0521L137.904 90.2881L147.174 78.654C147.352 78.3419 147.683 78.1651 148.025 78.1651C148.179 78.1651 148.339 78.1998 148.486 78.2795C148.918 78.5118 149.113 79.0249 148.935 79.4825L139.634 96.9267L131.048 89.0262Z" fill="#2129EE" fill-opacity="0.1"/>
<path d="M129.765 132.048L123.243 132.81L123.285 133.153L129.636 132.408L160.071 128.844L160.033 128.501L129.765 132.048Z" fill="#2129EE" fill-opacity="0.1"/>
<path d="M159.572 124.625L159.53 124.282L131.348 127.582L122.744 128.588L122.786 128.934L131.219 127.946L159.572 124.625Z" fill="#2129EE" fill-opacity="0.1"/>
<path d="M158.571 116.188L158.533 115.844L134.508 118.656L121.743 120.15L121.785 120.497L134.379 119.02L158.571 116.188Z" fill="#2129EE" fill-opacity="0.1"/>
<path d="M151.997 121.235L151.956 120.892L132.928 123.117L122.246 124.369L122.284 124.716L132.799 123.485L151.997 121.235Z" fill="#2129EE" fill-opacity="0.1"/>
<path d="M110.998 146.292C110.113 146.292 109.216 146.098 108.365 145.685L104.438 143.924C101.443 142.475 100.201 138.891 101.655 135.916C102.698 133.788 104.846 132.547 107.082 132.547C107.968 132.547 108.864 132.741 109.715 133.153L110.085 133.32L109.562 128.914C108.585 128.9 107.605 128.678 106.67 128.224L94.0247 123.752C90.6035 122.095 89.1771 117.994 90.8441 114.593C92.0368 112.156 94.4921 110.738 97.0484 110.738C98.0598 110.738 99.0886 110.96 100.062 111.431L107.814 114.17L107.023 107.497C107.002 107.497 106.981 107.497 106.96 107.497C105.847 107.497 104.721 107.254 103.654 106.737L89.7735 101.829C86.0174 100.012 84.455 95.5089 86.286 91.7753C87.5938 89.099 90.2896 87.5425 93.0936 87.5425C94.2026 87.5425 95.3325 87.7886 96.3997 88.3051L103.42 90.7873L101.648 75.8356C101.558 75.0729 102.105 74.383 102.873 74.2929L103.04 74.2755L105.066 91.3662L105.115 91.3835L102.935 72.9894L91.423 63.9587C88.4343 61.6153 87.9216 57.3062 90.2827 54.3353C91.6428 52.6227 93.6585 51.7283 95.6987 51.7283C97.1914 51.7283 98.698 52.2102 99.964 53.2017L100.654 53.7425L98.9351 39.2345C98.7364 37.5531 99.4966 35.9793 100.787 35.0537C101.394 34.6203 102.112 34.3291 102.904 34.239L104.355 34.0691C104.669 33.5422 105.22 33.1574 105.882 33.0811L117.747 31.6945C118.406 31.6182 119.03 31.8609 119.459 32.3011L129.723 31.0982C129.357 28.2902 128.398 26.0716 126.448 24.8513C121.538 21.7763 112.02 25.9918 100.592 34.8041C90.0943 42.8883 77.9892 54.8483 66.3584 68.5867L70.4806 71.1729L80.5072 103.891L37.3459 116.961L36.1566 113.088L34.5943 113.563C16.3302 145.138 6.82678 174.646 13.0415 178.757C17.3869 181.638 28.8085 171.658 40.0313 163.036H32.9447C32.8505 163.036 32.7703 162.956 32.7703 162.863C32.7703 162.766 32.8505 162.689 32.9447 162.689H40.4846C42.5178 161.133 44.5441 159.625 46.5145 158.256H32.9447C32.8505 158.256 32.7703 158.176 32.7703 158.082C32.7703 157.985 32.8505 157.909 32.9447 157.909H47.0167C53.9185 153.18 60.1158 150.216 63.7288 152.702C65.2982 153.78 66.0061 155.628 66.2887 157.909H74.3518C74.4459 157.909 74.5261 157.985 74.5261 158.082C74.5261 158.176 74.4459 158.256 74.3518 158.256H66.327C66.47 159.611 66.477 161.112 66.4316 162.689H74.3518C74.4459 162.689 74.5261 162.766 74.5261 162.863C74.5261 162.956 74.4459 163.036 74.3518 163.036H66.4212C66.2015 170.087 65.1447 178.591 70.8329 182.9C77.2568 187.757 87.7263 183.846 89.7037 183.108C102.904 178.178 104.529 167.057 112.917 157.226L111.619 146.261C111.413 146.282 111.208 146.292 110.998 146.292Z" fill="#2129EE" fill-opacity="0.1"/>
<path d="M70.4806 71.1729L66.3584 68.5867C65.5284 69.5678 64.7018 70.5558 63.8753 71.5542L64.5379 71.9702V71.9737L73.6577 101.732L36.1566 113.088L37.3459 116.961L80.5072 103.891L70.4806 71.1729Z" fill="white"/>
<path d="M65.6923 25.9606C66.0411 25.867 66.2468 25.5134 66.1527 25.1667C66.062 24.8235 65.7028 24.619 65.3575 24.7091C65.0087 24.8027 64.803 25.1563 64.8971 25.503C64.9878 25.8462 65.347 26.0507 65.6923 25.9606Z" fill="white"/>
<path d="M61.3015 26.4563C61.2074 26.1131 60.8517 25.9086 60.5029 25.9987C60.1576 26.0923 59.9519 26.4459 60.0425 26.7926C60.1367 27.1393 60.4924 27.3438 60.8412 27.2502C61.1865 27.1566 61.3922 26.803 61.3015 26.4563Z" fill="white"/>
<path d="M66.9548 28.5051C66.8606 28.4913 66.7699 28.5537 66.7525 28.6473C66.7002 28.9489 66.5886 29.2505 66.4177 29.5486C65.5493 31.0635 63.551 31.6286 61.9572 30.8035C61.6085 30.6233 61.3225 30.4049 61.1097 30.1483C61.0505 30.0721 60.9389 30.0617 60.8656 30.1241C60.7889 30.1865 60.7819 30.2939 60.8412 30.3667C61.0853 30.6614 61.4062 30.911 61.7968 31.1121C62.3443 31.3929 62.9337 31.5281 63.5161 31.5281C64.8065 31.5281 66.062 30.8729 66.7211 29.7219C66.9129 29.3891 67.0385 29.0459 67.0978 28.7062C67.1117 28.6091 67.049 28.5225 66.9548 28.5051Z" fill="white"/>
<path d="M56.6143 81.1603L56.1261 81.3059L36.9588 87.1091L37.0669 87.4662L55.7425 81.8156L56.7225 81.5174L56.6143 81.1603Z" fill="white"/>
<path d="M55.8855 78.7857L36.2299 84.7345L36.3415 85.095L55.9971 79.1427L55.8855 78.7857Z" fill="white"/>
<path d="M49.8312 78.023L35.5045 82.3633L35.6126 82.7203L49.9428 78.3835L49.8312 78.023Z" fill="white"/>
<path d="M44.3837 73.1905L33.684 76.4283L33.7956 76.7854L44.4953 73.5475L44.3837 73.1905Z" fill="white"/>
<path fill-rule="evenodd" clip-rule="evenodd" d="M256.323 19.0932C255.904 21.5302 253.578 23.1665 251.13 22.7505C248.678 22.3345 247.032 20.0222 247.454 17.5886C247.872 15.1516 250.195 13.5153 252.643 13.9313C255.095 14.3473 256.741 16.6595 256.323 19.0932ZM254.104 17.6995C254.143 17.4742 253.989 17.2593 253.763 17.2211C253.536 17.183 253.32 17.3355 253.281 17.5609C253.243 17.7862 253.396 18.0011 253.623 18.0393C253.85 18.0774 254.066 17.9249 254.104 17.6995ZM250.938 17.1622C250.976 16.9369 250.823 16.7219 250.596 16.6838C250.369 16.6457 250.153 16.7982 250.115 17.0235C250.076 17.2489 250.23 17.4603 250.457 17.4985C250.683 17.5401 250.896 17.3875 250.938 17.1622ZM249.895 19.2387C249.871 19.1486 249.776 19.0897 249.682 19.1174C249.588 19.1417 249.532 19.2353 249.557 19.3289C249.623 19.5716 249.749 19.8107 249.923 20.0361C250.408 20.6532 251.144 20.979 251.876 20.979C252.357 20.979 252.839 20.8403 253.247 20.5491C253.452 20.4001 253.623 20.2302 253.752 20.0395C253.808 19.9633 253.787 19.8558 253.707 19.8003C253.627 19.7483 253.519 19.7657 253.466 19.8454C253.358 20.0014 253.215 20.1435 253.041 20.2649C252.158 20.8958 250.882 20.6982 250.198 19.8246C250.052 19.634 249.947 19.4363 249.895 19.2387ZM253.627 96.9409L237.298 94.7673L235.384 108.967L254.233 111.477L259.765 112.215L261.676 98.0121L253.627 96.9409ZM232.562 129.912L230.647 144.112L255.025 147.36L256.94 133.161L232.562 129.912ZM254.401 45.0579V34.436C254.401 31.7979 252.246 29.659 249.592 29.659H212.223H200.976C198.318 29.659 196.167 31.7979 196.167 34.436V45.0579C196.167 47.6995 198.318 49.8384 200.976 49.8384H206.887H208.931L206.106 53.2566L204.983 54.619L205.872 54.411L225.284 49.8384H249.592C252.246 49.8384 254.401 47.6995 254.401 45.0579ZM202.577 45.5016C201.89 45.5016 201.332 44.9469 201.332 44.264C201.332 43.5776 201.89 43.023 202.577 43.023C203.267 43.023 203.825 43.5776 203.825 44.264C203.825 44.9469 203.267 45.5016 202.577 45.5016ZM206.497 45.5016C205.806 45.5016 205.248 44.9469 205.248 44.264C205.248 43.5776 205.806 43.023 206.497 43.023C207.184 43.023 207.742 43.5776 207.742 44.264C207.742 44.9469 207.184 45.5016 206.497 45.5016ZM210.413 45.5016C209.726 45.5016 209.168 44.9469 209.168 44.264C209.168 43.5776 209.726 43.023 210.413 43.023C211.104 43.023 211.662 43.5776 211.662 44.264C211.662 44.9469 211.104 45.5016 210.413 45.5016ZM171.294 80.9039L172.999 95.2871L179.448 149.7C179.66 151.482 178.792 153.142 177.359 154.037C176.807 154.387 176.169 154.619 175.479 154.699L157.023 156.859L117.977 161.431C115.49 161.722 113.241 159.954 112.948 157.486L112.916 157.226L111.619 146.261C113.624 146.053 115.476 144.854 116.421 142.923C117.879 139.948 116.634 136.364 113.642 134.915L110.085 133.32L109.562 128.914C109.603 128.917 109.642 128.917 109.684 128.917C112.24 128.917 114.695 127.499 115.888 125.062C116.195 124.438 116.397 123.79 116.498 123.142L117.827 134.343C118.162 137.161 120.729 139.175 123.564 138.846L127.522 138.381L164.765 134.02C167.601 133.687 169.627 131.136 169.292 128.317L164.999 92.07L161.546 62.9431C161.211 60.1247 158.645 58.1071 155.809 58.4399L154.386 58.6063L127.777 61.7194L114.608 63.262C114.127 63.3175 113.666 63.4388 113.237 63.6156C111.152 64.4719 109.802 66.6282 110.081 68.9682L111.33 79.5034L113.262 95.8002C112.54 94.722 111.532 93.8172 110.28 93.2106L105.115 91.3836L102.935 72.9895L100.654 53.7426L98.9351 39.2346C98.7363 37.5532 99.4966 35.9794 100.787 35.0538C101.394 34.6204 102.112 34.3292 102.904 34.2391L104.355 34.0692L119.459 32.3012L129.723 31.0983L160.406 27.5034C162.892 27.2122 165.142 28.9802 165.435 31.4484L166.39 39.5119L167.377 47.8319L168.933 60.9567L169.487 65.6367C169.477 66.0146 169.522 66.4063 169.623 66.8084L171.095 79.2191L171.161 79.7807C171.161 80.0684 171.207 80.4428 171.294 80.897V80.9039ZM129.866 35.9932L128.666 36.1319C127.864 36.229 127.275 36.9084 127.275 37.6919C127.275 37.7508 127.278 37.8132 127.285 37.8756C127.386 38.7354 128.171 39.349 129.036 39.2484L129.629 39.1791L136.161 38.413C136.963 38.3194 137.552 37.6434 137.552 36.8634C137.552 36.801 137.549 36.7351 137.542 36.6727C137.441 35.813 136.656 35.1994 135.791 35.2999L129.866 35.9932ZM112.376 55.8018L127.763 53.9991L156.238 50.6676C158.184 50.4388 159.618 48.7956 159.618 46.8924C159.618 46.7434 159.607 46.5943 159.59 46.4418C159.346 44.3548 157.441 42.8607 155.342 43.1068L128.736 46.2199L111.48 48.241C109.534 48.4698 108.097 50.113 108.097 52.0162C108.097 52.1652 108.107 52.3143 108.125 52.4668C108.372 54.5538 110.273 56.0479 112.376 55.8018ZM121.412 151.024C121.531 152.023 122.441 152.737 123.445 152.619C124.373 152.508 125.06 151.724 125.06 150.816C125.06 150.747 125.053 150.674 125.046 150.601C124.934 149.676 124.15 148.993 123.233 148.993C123.163 148.993 123.09 149 123.016 149.007C122.082 149.117 121.402 149.904 121.402 150.813C121.402 150.882 121.405 150.955 121.412 151.024ZM143.676 150.081L143.715 150.417L144.22 150.359L147.694 149.953L147.227 145.997L143.247 146.462L143.676 150.081ZM165.027 144.087L165.456 147.7L169.09 147.273L168.678 143.81L168.661 143.661L168.361 143.696L165.027 144.087ZM146.92 146.383L143.634 146.767L144.022 150.033L147.307 149.648L146.92 146.383ZM130.581 177.787C130.745 177.558 130.936 177.34 131.149 177.139C132.903 175.499 145.169 174.31 146.818 176.054C148.472 177.794 147.889 179.274 146.138 180.914C146.062 180.983 145.971 181.056 145.859 181.129H130.849C130.755 181.129 130.675 181.208 130.675 181.302C130.675 181.316 130.675 181.326 130.678 181.337C130.696 181.416 130.766 181.475 130.849 181.475H145.225C141.922 183.042 132.433 184.817 130.964 183.264C130.469 182.741 130.131 182.131 129.946 181.482C129.629 180.37 129.768 179.156 130.361 178.134H138.567C138.661 178.134 138.741 178.054 138.741 177.96C138.741 177.863 138.661 177.787 138.567 177.787H130.581ZM116.062 119.443L114.064 102.581C113.98 102.813 113.883 103.042 113.771 103.267C112.47 105.919 109.806 107.472 107.023 107.497L107.814 114.17L112.707 115.9C114.287 116.662 115.438 117.945 116.062 119.443ZM63.8753 71.5541L64.5379 71.9701V71.9736L73.6577 101.731L36.1566 113.088L34.5942 113.563L34.3955 113.622L25.2756 83.8608L29.227 74.9826L31.3823 82.0096V82.013L32.8017 86.641L36.8193 88.1248L48.1118 92.2952L49.4684 92.7978L60.6598 77.3296L60.2587 76.0157L59.488 73.5024L59.4845 73.4989L57.7024 67.6853L63.8753 71.5541ZM51.2436 172.345C52.8307 172.345 54.1173 171.066 54.1173 169.488C54.1173 167.91 52.8307 166.632 51.2436 166.632C49.6565 166.632 48.3699 167.91 48.3699 169.488C48.3699 171.066 49.6565 172.345 51.2436 172.345ZM30.7196 71.6346L37.9806 55.3204L53.1652 64.8399L30.7196 71.6346Z" fill="#2129EE"/>
<path fill-rule="evenodd" clip-rule="evenodd" d="M250.938 17.1622C250.896 17.3875 250.683 17.54 250.457 17.4984C250.23 17.4603 250.076 17.2488 250.115 17.0235C250.153 16.7982 250.369 16.6456 250.596 16.6838C250.823 16.7219 250.976 16.9368 250.938 17.1622ZM253.623 18.0395C253.85 18.0776 254.066 17.9251 254.104 17.6998C254.143 17.4744 253.989 17.2595 253.763 17.2214C253.536 17.1832 253.32 17.3358 253.281 17.5611C253.243 17.7864 253.397 18.0014 253.623 18.0395ZM249.281 119.678L256.734 120.67L261.753 121.339C261.847 121.353 261.916 121.439 261.903 121.537C261.892 121.623 261.815 121.686 261.728 121.686C261.721 121.686 261.714 121.686 261.707 121.682L256.87 121.037L249.232 120.022C249.138 120.011 249.072 119.921 249.082 119.827C249.096 119.734 249.187 119.661 249.281 119.678ZM265.819 125.132L258.136 124.109L248.849 122.872C248.755 122.854 248.667 122.924 248.654 123.021C248.64 123.114 248.709 123.201 248.803 123.215L258.31 124.48L265.77 125.475H265.795C265.882 125.475 265.955 125.413 265.969 125.326C265.979 125.229 265.913 125.142 265.819 125.132ZM264.33 128.179L259.894 127.59L248.42 126.061C248.326 126.047 248.235 126.117 248.225 126.21C248.211 126.307 248.277 126.394 248.375 126.404L260.106 127.968L264.281 128.522C264.291 128.526 264.298 128.526 264.305 128.526C264.393 128.526 264.466 128.464 264.48 128.377C264.49 128.28 264.424 128.193 264.33 128.179ZM249.923 20.0356C250.408 20.6526 251.144 20.9785 251.876 20.9785C252.357 20.9785 252.839 20.8398 253.247 20.5486C253.452 20.3996 253.623 20.2297 253.752 20.039C253.808 19.9628 253.787 19.8553 253.707 19.7998C253.627 19.7478 253.519 19.7652 253.466 19.8449C253.358 20.0009 253.215 20.143 253.041 20.2644C252.158 20.8953 250.882 20.6977 250.198 19.8241C250.052 19.6334 249.947 19.4358 249.895 19.2382C249.871 19.1481 249.776 19.0892 249.682 19.1169C249.588 19.1412 249.532 19.2348 249.557 19.3284C249.623 19.571 249.749 19.8102 249.923 20.0356ZM249.815 60.905C249.912 60.905 249.989 60.9847 249.989 61.0783C249.989 61.1754 249.912 61.2517 249.815 61.2517H230.927C230.829 61.2517 230.752 61.1754 230.752 61.0783C230.752 60.9847 230.829 60.905 230.927 60.905H249.815ZM249.515 116.639C249.501 116.732 249.567 116.819 249.665 116.833L255.712 117.637L262.136 118.493H262.161C262.244 118.493 262.321 118.431 262.331 118.344C262.345 118.251 262.279 118.16 262.182 118.15L255.604 117.273L249.71 116.489C249.616 116.472 249.525 116.541 249.515 116.639ZM238.644 57.5629C238.739 57.5629 238.819 57.6392 238.819 57.7363C238.819 57.8333 238.739 57.9096 238.644 57.9096H226.058C225.964 57.9096 225.884 57.8333 225.884 57.7363C225.884 57.6392 225.964 57.5629 226.058 57.5629H238.644ZM211.215 130.193C211.487 128.578 204.436 108.839 201.412 100.387C201.412 100.383 201.412 100.38 201.408 100.377C201.353 100.175 201.283 99.9778 201.196 99.7872L201.196 99.7868C201.192 99.7731 201.189 99.7593 201.182 99.7456C201.14 99.6277 201.098 99.5411 201.053 99.4752C200.864 99.0973 200.627 98.7403 200.348 98.4144L189.865 86.229L189.858 86.2187C187.517 83.5815 185.236 76.9129 183.201 70.9664L183.201 70.9662C181.211 65.148 179.457 60.0212 178.115 60.0384C173.508 60.1008 169.543 62.3472 169.487 65.637C169.477 66.0149 169.522 66.4066 169.623 66.8088C169.634 66.8573 169.648 66.9058 169.662 66.9544L171.095 79.2195L171.161 79.7811C171.161 80.0688 171.207 80.4432 171.294 80.8973V80.9043C171.712 83.1056 173.065 87.0714 174.753 90.9749C174.799 91.1205 174.851 91.2661 174.907 91.4083L175.102 91.7722L175.106 91.7757C175.967 93.7205 176.905 95.6168 177.84 97.2357L172.999 95.2874L179.448 149.7C179.66 151.482 178.792 153.143 177.359 154.037C176.808 154.387 176.169 154.619 175.479 154.699L157.023 156.859C163.035 159.594 168.326 161.425 172.5 162.627C178.645 164.406 182.367 164.836 182.388 164.836C182.388 164.836 183.978 165.39 184.47 165.765C184.689 165.933 184.91 166.103 185.132 166.274L185.629 166.656C190.435 170.352 196.037 174.662 203.825 179.531C209.262 182.928 225.005 156.8 225.005 156.8C226.993 150.986 225.503 144.556 221.162 140.191L211.215 130.193ZM211.662 44.2643C211.662 44.9472 211.104 45.5019 210.413 45.5019C209.726 45.5019 209.168 44.9472 209.168 44.2643C209.168 43.5779 209.726 43.0232 210.413 43.0232C211.104 43.0232 211.662 43.5779 211.662 44.2643ZM168.933 60.9567C169.752 60.4991 170.255 59.5804 170.139 58.5959L168.724 46.6498L168.117 41.5329C167.998 40.5484 167.294 39.7719 166.39 39.5119L167.377 47.8319L168.933 60.9567ZM165.027 144.087L168.361 143.696L168.661 143.661L168.678 143.81L169.09 147.273L165.456 147.7L165.027 144.087ZM149.738 181.128H145.859H130.849C130.755 181.128 130.675 181.208 130.675 181.301L130.675 181.311L130.675 181.317L130.676 181.323C130.676 181.328 130.677 181.332 130.678 181.336C130.696 181.416 130.766 181.475 130.849 181.475H145.225H149.738C149.835 181.475 149.912 181.398 149.912 181.301C149.912 181.208 149.835 181.128 149.738 181.128ZM148.935 79.4825L139.634 96.9268L131.048 89.0263C130.577 88.5964 131.041 87.8372 131.641 88.0521L137.904 90.2881L147.174 78.654C147.352 78.342 147.683 78.1652 148.025 78.1652C148.179 78.1652 148.339 78.1999 148.486 78.2796C148.918 78.5119 149.113 79.025 148.935 79.4825ZM143.676 150.081L143.715 150.417L144.22 150.358L147.694 149.952L147.227 145.997L143.247 146.461L143.676 150.081ZM147.307 149.647L144.022 150.032L143.634 146.766L146.92 146.382L147.307 149.647ZM138.567 177.787C138.661 177.787 138.741 177.863 138.741 177.961C138.741 178.054 138.661 178.134 138.567 178.134H130.361H125.981C125.887 178.134 125.806 178.054 125.806 177.961C125.806 177.863 125.887 177.787 125.981 177.787H130.581H138.567ZM123.564 138.846L127.522 138.381L164.765 134.02C167.601 133.687 169.627 131.136 169.292 128.317L164.999 92.0699L161.546 62.943C161.211 60.1246 158.645 58.107 155.809 58.4398L154.386 58.6062L127.777 61.7192L114.608 63.2619C114.127 63.3174 113.666 63.4387 113.237 63.6155C111.152 64.4718 109.802 66.628 110.081 68.968L111.33 79.5032L113.262 95.8C112.54 94.7219 111.532 93.8171 110.28 93.2104L105.115 91.3835L105.066 91.3662L103.04 74.2755L102.873 74.2928C102.105 74.383 101.558 75.0728 101.648 75.8355L103.42 90.7872L96.3997 88.3051C95.3326 87.7886 94.2026 87.5424 93.0936 87.5424C90.2896 87.5424 87.5938 89.099 86.286 91.7752C84.455 95.5088 86.0174 100.012 89.7735 101.829L103.654 106.737C104.721 107.254 105.847 107.497 106.96 107.497H107.023C109.806 107.472 112.47 105.919 113.771 103.267C113.883 103.042 113.98 102.813 114.064 102.581L116.062 119.443C115.438 117.945 114.287 116.662 112.707 115.9L107.814 114.17L100.062 111.431C99.0886 110.96 98.0598 110.738 97.0484 110.738C94.4921 110.738 92.0369 112.156 90.8441 114.593C89.1771 117.994 90.6035 122.095 94.0247 123.752L106.67 128.224C107.605 128.678 108.585 128.9 109.562 128.914C109.603 128.917 109.642 128.917 109.684 128.917C112.24 128.917 114.695 127.499 115.888 125.062C116.195 124.438 116.397 123.79 116.498 123.142L117.827 134.342C118.162 137.161 120.729 139.175 123.564 138.846ZM129.636 132.408L123.285 133.153L123.243 132.81L129.765 132.047L160.033 128.501L160.071 128.844L129.636 132.408ZM120.439 112.437L116.627 80.252L115.679 72.244C115.441 70.2507 116.875 68.4446 118.884 68.2088L119.068 68.188L130.183 66.8846L144.52 65.2067L152.632 64.2568C154.637 64.0211 156.458 65.4494 156.692 67.4427L159.342 89.7923L161.456 107.632C161.693 109.629 160.256 111.435 158.251 111.67L136.063 114.27L124.502 115.622C122.493 115.855 120.676 114.43 120.439 112.437ZM121.743 120.15L134.508 118.656L158.533 115.844L158.571 116.187L134.379 119.02L121.785 120.497L121.743 120.15ZM122.246 124.369L132.928 123.117L151.956 120.892L151.997 121.235L132.799 123.485L122.284 124.715L122.246 124.369ZM122.744 128.588L131.348 127.582L159.53 124.282L159.572 124.625L131.219 127.946L122.786 128.934L122.744 128.588ZM129.629 39.1796L129.036 39.2489C128.171 39.3494 127.386 38.7358 127.285 37.8761C127.278 37.8137 127.275 37.7513 127.275 37.6924C127.275 36.9089 127.864 36.2294 128.666 36.1324L129.866 35.9937L135.791 35.3004C136.656 35.1998 137.441 35.8134 137.542 36.6732C137.549 36.7356 137.552 36.8014 137.552 36.8638C137.552 37.6438 136.963 38.3198 136.161 38.4134L129.629 39.1796ZM111.48 48.2408C109.534 48.4696 108.097 50.1128 108.097 52.016C108.097 52.165 108.107 52.3141 108.125 52.4666C108.372 54.5536 110.273 56.0477 112.376 55.8016L127.763 53.9989L156.238 50.6674C158.184 50.4386 159.618 48.7954 159.618 46.8923C159.618 46.7432 159.607 46.5941 159.59 46.4416C159.346 44.3546 157.441 42.8605 155.342 43.1066L128.736 46.2197L111.48 48.2408ZM123.016 149.006C123.09 148.999 123.163 148.992 123.233 148.992C124.15 148.992 124.934 149.675 125.046 150.601C125.053 150.674 125.06 150.746 125.06 150.816C125.06 151.724 124.373 152.507 123.445 152.618C122.441 152.736 121.531 152.022 121.412 151.024C121.405 150.954 121.402 150.882 121.402 150.812C121.402 149.904 122.082 149.117 123.016 149.006ZM117.747 31.6946L105.882 33.0813C105.22 33.1575 104.669 33.5424 104.355 34.0693L119.459 32.3013C119.03 31.861 118.406 31.6184 117.747 31.6946ZM110.085 133.32L113.642 134.915C116.634 136.364 117.879 139.949 116.421 142.923C115.476 144.854 113.624 146.053 111.619 146.261C111.413 146.282 111.208 146.293 110.998 146.293C110.113 146.293 109.216 146.098 108.365 145.686L104.438 143.925C101.443 142.476 100.201 138.891 101.655 135.917C102.698 133.788 104.846 132.547 107.082 132.547C107.968 132.547 108.864 132.741 109.715 133.154L110.085 133.32ZM91.4231 63.9582L102.935 72.9889L100.654 53.7419L99.964 53.2011C98.698 52.2097 97.1914 51.7278 95.6987 51.7278C93.6586 51.7278 91.6428 52.6222 90.2827 54.3348C87.9216 57.3057 88.4343 61.6148 91.4231 63.9582ZM66.2887 157.909H74.3518C74.4459 157.909 74.5261 157.986 74.5261 158.083C74.5261 158.176 74.4459 158.256 74.3518 158.256H66.327H56.0528C55.9552 158.256 55.8785 158.176 55.8785 158.083C55.8785 157.986 55.9552 157.909 56.0528 157.909H66.2887ZM74.3518 162.69H66.4316H66.0236C65.9294 162.69 65.8492 162.766 65.8492 162.863C65.8492 162.957 65.9294 163.036 66.0236 163.036H66.4212H74.3518C74.4459 163.036 74.5261 162.957 74.5261 162.863C74.5261 162.766 74.4459 162.69 74.3518 162.69ZM70.2225 25.7108C71.2235 29.441 68.9949 33.2716 65.2424 34.2701C61.4899 35.2685 57.6327 33.0532 56.6318 29.3231C55.6274 25.593 57.8559 21.7589 61.6084 20.7605C65.361 19.7621 69.2182 21.9772 70.2225 25.7108ZM66.1526 25.1666C66.062 24.8234 65.7027 24.6189 65.3575 24.709C65.0087 24.8026 64.803 25.1562 64.8971 25.5029C64.9878 25.8461 65.347 26.0506 65.6923 25.9605C66.041 25.8669 66.2468 25.5132 66.1526 25.1666ZM66.4177 29.5485C65.5493 31.0634 63.551 31.6285 61.9572 30.8034C61.6084 30.6231 61.3224 30.4047 61.1097 30.1482C61.0504 30.0719 60.9388 30.0615 60.8656 30.1239C60.7889 30.1863 60.7819 30.2938 60.8412 30.3666C61.0853 30.6613 61.4062 30.9108 61.7968 31.1119C62.3443 31.3927 62.9337 31.5279 63.5161 31.5279C64.8065 31.5279 66.062 30.8727 66.7211 29.7218C66.9129 29.389 67.0385 29.0458 67.0977 28.7061C67.1117 28.609 67.0489 28.5223 66.9548 28.505C66.8606 28.4911 66.7699 28.5535 66.7525 28.6471C66.7002 28.9487 66.5886 29.2503 66.4177 29.5485ZM61.3015 26.4562C61.2074 26.113 60.8516 25.9085 60.5029 25.9986C60.1576 26.0922 59.9519 26.4458 60.0425 26.7924C60.1367 27.1391 60.4924 27.3437 60.8412 27.25C61.1864 27.1564 61.3922 26.8029 61.3015 26.4562ZM61.2178 162.69H40.4846H32.9447C32.8505 162.69 32.7703 162.766 32.7703 162.863C32.7703 162.957 32.8505 163.036 32.9447 163.036H40.0313H61.2178C61.312 163.036 61.3922 162.957 61.3922 162.863C61.3922 162.766 61.312 162.69 61.2178 162.69ZM53.4826 158.513C53.2419 158.513 53.0466 158.322 53.0466 158.083C53.0466 157.844 53.2419 157.649 53.4826 157.649C53.7197 157.649 53.915 157.844 53.915 158.083C53.915 158.322 53.7197 158.513 53.4826 158.513ZM47.0167 157.909H32.9447C32.8505 157.909 32.7703 157.986 32.7703 158.083C32.7703 158.176 32.8505 158.256 32.9447 158.256H46.5145H51.2436C51.3412 158.256 51.418 158.176 51.418 158.083C51.418 157.986 51.3412 157.909 51.2436 157.909H47.0167ZM36.8193 88.1246L32.8017 86.6408L31.3823 82.0128V82.0094L29.227 74.9824L28.4144 72.3304L30.7196 71.6336L53.1652 64.839L56.5202 63.8232L57.7024 67.6851L59.4845 73.4987L59.488 73.5022L60.2588 76.0155L60.6598 77.3294L49.4684 92.7976L48.1118 92.295L36.8193 88.1246ZM49.8312 78.0227L35.5045 82.363L35.6126 82.72L49.9427 78.3832L49.8312 78.0227ZM36.2299 84.7342L36.3415 85.0947L55.997 79.1424L55.8854 78.7854L36.2299 84.7342ZM56.7224 81.5171L56.6143 81.16L56.1261 81.3056L36.9588 87.1088L37.0669 87.4659L55.7424 81.8152L56.7224 81.5171ZM44.4953 73.5472L44.3837 73.1902L33.684 76.428L33.7956 76.7851L44.4953 73.5472Z" fill="#6C9BFC"/>
</svg>
